<svg width="28" height="29" viewBox="0 0 28 29" fill="none" xmlns="http://www.w3.org/2000/svg">
<path d="M27.4517 3.02796C27.0013 2.62349 26.361 2.4887 25.7807 2.67612L1.16108 10.6295C0.490122 10.8462 0.0351218 11.4332 0.0019265 12.1247C-0.0312141 12.8163 0.365544 13.4425 1.01272 13.7201L7.10135 16.3307C7.13104 16.4658 8.87891 24.4103 8.93836 24.6804C9.01465 25.0272 9.19429 25.3362 9.57486 25.4312C9.95981 25.5273 10.2318 25.3211 10.519 25.1104C10.6788 24.9932 15.0373 21.7948 15.0373 21.7948L20.3195 26.0308C20.6272 26.2777 21.0032 26.4064 21.3866 26.4064C21.5691 26.4064 21.7534 26.3772 21.9327 26.3176C22.4887 26.1329 22.9008 25.6882 23.0352 25.1282L27.9552 4.62849C28.095 4.04565 27.9022 3.43243 27.4517 3.02796ZM10.9126 17.8267C10.9096 17.8337 10.9066 17.8415 10.9038 17.851L9.88533 21.3382L8.7487 16.172L16.5645 11.9164L11.1 17.5158C11.014 17.604 10.9506 17.7107 10.9126 17.8267ZM11.2358 22.5711L11.6984 20.9871L12.1409 19.4721L13.7264 20.7435L11.2358 22.5711ZM26.3544 4.25944L21.4344 24.7592C21.4319 24.7693 21.4287 24.7834 21.4046 24.7914C21.3807 24.7993 21.3692 24.7902 21.361 24.7836L15.581 20.1484C15.5808 20.1483 15.5807 20.1481 15.5805 20.148L12.9025 18.0004L21.5061 9.18433C21.7871 8.89637 21.8112 8.45042 21.5627 8.13502C21.3142 7.81957 20.8678 7.72947 20.5125 7.92306L7.77302 14.8596L1.67192 12.2436C1.65333 12.2356 1.6431 12.2312 1.64457 12.2004C1.64605 12.1697 1.65666 12.1662 1.67591 12.16L26.2956 4.20665C26.3075 4.20284 26.3209 4.19845 26.3407 4.21614C26.3605 4.23393 26.3573 4.24743 26.3544 4.25944Z" fill="black"/>
</svg>
