<svg width="62" height="62" viewBox="0 0 62 62" fill="none" xmlns="http://www.w3.org/2000/svg">
<path d="M13.0431 47.7819H7.85055C7.20739 47.7813 6.59075 47.5255 6.13597 47.0707C5.68119 46.6159 5.42542 45.9993 5.4248 45.3561V20.2616C5.4248 19.645 5.66976 19.0536 6.10578 18.6176C6.5418 18.1816 7.13318 17.9366 7.7498 17.9366H13.5236C13.7291 17.9366 13.9262 18.0183 14.0716 18.1636C14.2169 18.309 14.2986 18.5061 14.2986 18.7116C14.2986 18.9172 14.2169 19.1143 14.0716 19.2597C13.9262 19.405 13.7291 19.4866 13.5236 19.4866H7.7498C7.54426 19.4866 7.34714 19.5683 7.2018 19.7136C7.05646 19.859 6.9748 20.0561 6.9748 20.2616V45.3561C6.97501 45.5883 7.06734 45.811 7.23153 45.9752C7.39572 46.1394 7.61835 46.2317 7.85055 46.2319H13.0431C13.2486 46.2319 13.4457 46.3135 13.5911 46.4589C13.7364 46.6042 13.8181 46.8014 13.8181 47.0069C13.8181 47.2124 13.7364 47.4096 13.5911 47.5549C13.4457 47.7002 13.2486 47.7819 13.0431 47.7819Z" fill="#0F171C"/>
<path d="M35.0374 47.7819H21.4439C21.2384 47.7819 21.0413 47.7002 20.8959 47.5549C20.7506 47.4096 20.6689 47.2124 20.6689 47.0069C20.6689 46.8014 20.7506 46.6042 20.8959 46.4589C21.0413 46.3135 21.2384 46.2319 21.4439 46.2319H35.0374C35.2696 46.2317 35.4923 46.1394 35.6565 45.9752C35.8207 45.811 35.913 45.5883 35.9132 45.3561V20.2616C35.9132 20.0561 35.8315 19.859 35.6862 19.7136C35.5409 19.5683 35.3437 19.4866 35.1382 19.4866H29.3567C29.1512 19.4866 28.954 19.405 28.8087 19.2597C28.6633 19.1143 28.5817 18.9172 28.5817 18.7116C28.5817 18.5061 28.6633 18.309 28.8087 18.1636C28.954 18.0183 29.1512 17.9366 29.3567 17.9366H35.1382C35.7548 17.9366 36.3462 18.1816 36.7822 18.6176C37.2182 19.0536 37.4632 19.645 37.4632 20.2616V45.3561C37.4626 45.9993 37.2068 46.6159 36.752 47.0707C36.2972 47.5255 35.6806 47.7813 35.0374 47.7819Z" fill="#0F171C"/>
<path d="M42.041 47.7857H39.9903C38.9084 47.7846 37.871 47.3544 37.1059 46.5895C36.3408 45.8245 35.9104 44.7872 35.9092 43.7053C35.9092 43.4998 35.9908 43.3026 36.1362 43.1573C36.2815 43.0119 36.4786 42.9303 36.6842 42.9303C36.8897 42.9303 37.0868 43.0119 37.2322 43.1573C37.3775 43.3026 37.4592 43.4998 37.4592 43.7053C37.46 44.3763 37.727 45.0195 38.2015 45.4939C38.676 45.9683 39.3193 46.2351 39.9903 46.2357H42.0394C42.245 46.2357 42.4421 46.3173 42.5874 46.4627C42.7328 46.608 42.8144 46.8051 42.8144 47.0107C42.8144 47.2162 42.7328 47.4133 42.5874 47.5587C42.4421 47.704 42.245 47.7857 42.0394 47.7857H42.041Z" fill="#0F171C"/>
<path d="M52.4936 47.7858H50.4368C50.2312 47.7858 50.0341 47.7041 49.8888 47.5588C49.7434 47.4134 49.6618 47.2163 49.6618 47.0108C49.6618 46.8052 49.7434 46.6081 49.8888 46.4628C50.0341 46.3174 50.2312 46.2358 50.4368 46.2358H52.4936C53.1646 46.2351 53.8079 45.9684 54.2824 45.494C54.757 45.0196 55.0239 44.3764 55.0248 43.7054V39.5498C55.0228 38.5867 54.6901 37.6535 54.0824 36.9063L47.5956 28.9401C47.2031 28.4572 46.7076 28.0683 46.1453 27.8017C45.5831 27.5351 44.9683 27.3976 44.346 27.3994H36.6852C36.4796 27.3994 36.2825 27.3177 36.1372 27.1724C35.9918 27.0271 35.9102 26.8299 35.9102 26.6244C35.9102 26.4188 35.9918 26.2217 36.1372 26.0764C36.2825 25.931 36.4796 25.8494 36.6852 25.8494H44.346C45.1987 25.8471 46.041 26.0356 46.8113 26.4012C47.5815 26.7668 48.2602 27.3001 48.7976 27.962L55.2852 35.9283C56.1171 36.9521 56.5724 38.2306 56.5748 39.5498V43.7054C56.5735 44.7873 56.1431 45.8246 55.378 46.5896C54.6129 47.3545 53.5755 47.7847 52.4936 47.7858Z" fill="#0F171C"/>
<path d="M55.8 40.2117H42.8753C42.2316 40.2108 41.6145 39.9548 41.1593 39.4996C40.7042 39.0444 40.4481 38.4273 40.4473 37.7836V31.7518C40.4481 31.1081 40.7042 30.4911 41.1594 30.036C41.6146 29.581 42.2317 29.3251 42.8753 29.3245H49.5357C49.7412 29.3245 49.9384 29.4061 50.0837 29.5515C50.229 29.6968 50.3107 29.8939 50.3107 30.0995C50.3107 30.305 50.229 30.5021 50.0837 30.6475C49.9384 30.7928 49.7412 30.8745 49.5357 30.8745H42.8753C42.6427 30.8747 42.4196 30.9671 42.2549 31.1316C42.0903 31.2961 41.9977 31.5191 41.9973 31.7518V37.7836C41.9975 38.0164 42.09 38.2396 42.2547 38.4043C42.4193 38.5689 42.6425 38.6615 42.8753 38.6617H55.8C56.0056 38.6617 56.2027 38.7433 56.348 38.8887C56.4934 39.034 56.575 39.2311 56.575 39.4367C56.575 39.6422 56.4934 39.8393 56.348 39.9847C56.2027 40.13 56.0056 40.2117 55.8 40.2117Z" fill="#0F171C"/>
<path d="M46.2388 51.9839C45.2552 51.9839 44.2937 51.6923 43.4759 51.1458C42.658 50.5994 42.0206 49.8227 41.6442 48.9139C41.2678 48.0052 41.1693 47.0053 41.3612 46.0406C41.5531 45.0759 42.0267 44.1897 42.7222 43.4942C43.4177 42.7987 44.3039 42.325 45.2686 42.1332C46.2333 41.9413 47.2332 42.0398 48.142 42.4162C49.0507 42.7926 49.8274 43.43 50.3738 44.2478C50.9203 45.0657 51.212 46.0272 51.212 47.0108C51.2103 48.3292 50.6859 49.5932 49.7536 50.5255C48.8213 51.4578 47.5573 51.9823 46.2388 51.9839ZM46.2388 43.5876C45.5618 43.5876 44.8999 43.7884 44.337 44.1645C43.774 44.5407 43.3353 45.0753 43.0762 45.7008C42.8171 46.3263 42.7493 47.0146 42.8814 47.6786C43.0135 48.3426 43.3395 48.9526 43.8183 49.4313C44.297 49.9101 44.9069 50.2361 45.571 50.3682C46.235 50.5003 46.9233 50.4325 47.5488 50.1734C48.1743 49.9143 48.7089 49.4755 49.0851 48.9126C49.4612 48.3497 49.662 47.6878 49.662 47.0108C49.6607 46.1033 49.2997 45.2333 48.658 44.5916C48.0163 43.9499 47.1463 43.5888 46.2388 43.5876Z" fill="#0F171C"/>
<path d="M17.2447 51.9839C16.2611 51.9839 15.2995 51.6923 14.4817 51.1458C13.6639 50.5994 13.0265 49.8227 12.65 48.9139C12.2736 48.0052 12.1752 47.0053 12.367 46.0406C12.5589 45.0759 13.0326 44.1897 13.7281 43.4942C14.4236 42.7987 15.3097 42.325 16.2744 42.1332C17.2391 41.9413 18.2391 42.0398 19.1478 42.4162C20.0565 42.7926 20.8332 43.43 21.3797 44.2478C21.9262 45.0657 22.2178 46.0272 22.2178 47.0108C22.2162 48.3292 21.6917 49.5932 20.7594 50.5255C19.8271 51.4578 18.5631 51.9823 17.2447 51.9839ZM17.2447 43.5876C16.5676 43.5876 15.9058 43.7884 15.3428 44.1645C14.7799 44.5407 14.3412 45.0753 14.0821 45.7008C13.823 46.3263 13.7552 47.0146 13.8873 47.6786C14.0193 48.3426 14.3454 48.9526 14.8241 49.4313C15.3028 49.9101 15.9128 50.2361 16.5768 50.3682C17.2409 50.5003 17.9292 50.4325 18.5547 50.1734C19.1802 49.9143 19.7148 49.4755 20.0909 48.9126C20.4671 48.3497 20.6678 47.6878 20.6678 47.0108C20.6668 46.1032 20.3058 45.2331 19.6641 44.5914C19.0223 43.9496 18.1522 43.5886 17.2447 43.5876Z" fill="#0F171C"/>
<path d="M21.4465 27.3994C19.7271 27.4001 18.0461 26.8909 16.6162 25.9362C15.1863 24.9814 14.0717 23.624 13.4133 22.0357C12.755 20.4473 12.5826 18.6994 12.9178 17.013C13.253 15.3267 14.0809 13.7776 15.2967 12.5618C16.5125 11.3461 18.0615 10.5182 19.7479 10.1829C21.4343 9.84769 23.1822 10.0201 24.7705 10.6785C26.3589 11.3368 27.7163 12.4514 28.671 13.8813C29.6258 15.3113 30.135 16.9922 30.1342 18.7116C30.1305 21.0146 29.214 23.2222 27.5856 24.8507C25.9571 26.4792 23.7495 27.3957 21.4465 27.3994ZM21.4465 11.5661C20.034 11.5653 18.653 11.9834 17.4782 12.7675C16.3033 13.5516 15.3873 14.6665 14.8461 15.9712C14.3048 17.2758 14.1626 18.7117 14.4375 20.0972C14.7123 21.4827 15.3917 22.7556 16.39 23.7549C17.3882 24.7542 18.6604 25.4351 20.0455 25.7114C21.4307 25.9877 22.8668 25.847 24.172 25.3072C25.4773 24.7674 26.5931 23.8526 27.3785 22.6786C28.1639 21.5046 28.5835 20.1241 28.5842 18.7116C28.5822 16.8185 27.8298 15.0034 26.4918 13.664C25.1539 12.3246 23.3396 11.5702 21.4465 11.5661Z" fill="#0F171C"/>
<path d="M24.5715 22.6137C24.47 22.6138 24.3694 22.5938 24.2757 22.5548C24.1819 22.5158 24.0968 22.4587 24.0252 22.3867L20.898 19.2595C20.7916 19.1532 20.7184 19.0181 20.6875 18.8709C20.6565 18.7236 20.6691 18.5705 20.7237 18.4303L21.8342 15.5775C21.8689 15.4798 21.9229 15.39 21.993 15.3135C22.063 15.2369 22.1477 15.1753 22.242 15.1321C22.3363 15.0889 22.4384 15.0651 22.5421 15.0621C22.6458 15.0591 22.749 15.0769 22.8457 15.1145C22.9423 15.1522 23.0305 15.2088 23.1048 15.2811C23.1792 15.3534 23.2383 15.4399 23.2786 15.5355C23.319 15.6311 23.3397 15.7338 23.3396 15.8375C23.3395 15.9412 23.3186 16.0439 23.2781 16.1394L22.3481 18.5248L25.1171 21.2947C25.2255 21.4031 25.2993 21.5412 25.3292 21.6915C25.3591 21.8418 25.3437 21.9976 25.2851 22.1392C25.2264 22.2808 25.1271 22.4018 24.9997 22.487C24.8723 22.5721 24.7225 22.6176 24.5692 22.6176L24.5715 22.6137Z" fill="#0F171C"/>
<path d="M21.4469 13.3556C21.2413 13.3556 21.0442 13.2739 20.8989 13.1286C20.7535 12.9833 20.6719 12.7861 20.6719 12.5806V10.7911C20.6719 10.5856 20.7535 10.3884 20.8989 10.2431C21.0442 10.0978 21.2413 10.0161 21.4469 10.0161C21.6524 10.0161 21.8495 10.0978 21.9949 10.2431C22.1402 10.3884 22.2219 10.5856 22.2219 10.7911V12.5806C22.2219 12.7861 22.1402 12.9833 21.9949 13.1286C21.8495 13.2739 21.6524 13.3556 21.4469 13.3556Z" fill="#0F171C"/>
<path d="M21.4469 27.3994C21.2413 27.3994 21.0442 27.3177 20.8989 27.1724C20.7535 27.027 20.6719 26.8299 20.6719 26.6244V24.8357C20.6719 24.6301 20.7535 24.433 20.8989 24.2877C21.0442 24.1423 21.2413 24.0607 21.4469 24.0607C21.6524 24.0607 21.8495 24.1423 21.9949 24.2877C22.1402 24.433 22.2219 24.6301 22.2219 24.8357V26.6244C22.2219 26.8299 22.1402 27.027 21.9949 27.1724C21.8495 27.3177 21.6524 27.3994 21.4469 27.3994Z" fill="#0F171C"/>
<path d="M29.3641 19.4827H27.5738C27.3683 19.4827 27.1712 19.4011 27.0258 19.2557C26.8805 19.1104 26.7988 18.9133 26.7988 18.7077C26.7988 18.5022 26.8805 18.3051 27.0258 18.1597C27.1712 18.0144 27.3683 17.9327 27.5738 17.9327H29.3641C29.5696 17.9327 29.7667 18.0144 29.9121 18.1597C30.0574 18.3051 30.1391 18.5022 30.1391 18.7077C30.1391 18.9133 30.0574 19.1104 29.9121 19.2557C29.7667 19.4011 29.5696 19.4827 29.3641 19.4827Z" fill="#0F171C"/>
<path d="M15.3194 19.4827H13.5299C13.3243 19.4827 13.1272 19.4011 12.9819 19.2557C12.8365 19.1104 12.7549 18.9133 12.7549 18.7077C12.7549 18.5022 12.8365 18.3051 12.9819 18.1597C13.1272 18.0144 13.3243 17.9327 13.5299 17.9327H15.3194C15.5249 17.9327 15.722 18.0144 15.8674 18.1597C16.0127 18.3051 16.0944 18.5022 16.0944 18.7077C16.0944 18.9133 16.0127 19.1104 15.8674 19.2557C15.722 19.4011 15.5249 19.4827 15.3194 19.4827Z" fill="#0F171C"/>
</svg>
