<svg width="57" height="57" viewBox="0 0 57 57" fill="none" xmlns="http://www.w3.org/2000/svg">
<path d="M52.4693 10.9521H4.53079C2.27428 10.9521 0.438477 12.7879 0.438477 15.0445V41.9556C0.438477 44.2121 2.27428 46.0479 4.53079 46.0479H52.4692C54.7255 46.0479 56.5615 44.2121 56.5615 41.9556V15.0445C56.5617 12.7879 54.7255 10.9521 52.4693 10.9521ZM55.3924 41.9556C55.3924 43.5673 54.081 44.8786 52.4693 44.8786H4.53079C2.91909 44.8786 1.60776 43.5673 1.60776 41.9556V15.0445C1.60776 13.4328 2.91909 12.1214 4.53079 12.1214H52.4692C54.0809 12.1214 55.3923 13.4328 55.3923 15.0445L55.3924 41.9556Z" fill="#0F171C"/>
<path d="M51.0046 17.7726H5.99572C5.67287 17.7726 5.41113 18.0343 5.41113 18.3572C5.41113 18.68 5.67287 18.9418 5.99572 18.9418H51.0046C51.3277 18.9418 51.5891 18.68 51.5891 18.3572C51.5891 18.0343 51.3276 17.7726 51.0046 17.7726Z" fill="#0F171C"/>
<path d="M10.3557 24.0749V22.9265C10.3557 22.6037 10.094 22.3419 9.77111 22.3419C9.44826 22.3419 9.18652 22.6037 9.18652 22.9265V24.0749C9.18652 24.3977 9.44826 24.6594 9.77111 24.6594C10.094 24.6595 10.3557 24.3977 10.3557 24.0749Z" fill="#0F171C"/>
<path d="M14.0168 24.0749V22.9265C14.0168 22.6037 13.7551 22.3419 13.4322 22.3419C13.1094 22.3419 12.8477 22.6037 12.8477 22.9265V24.0749C12.8477 24.3977 13.1094 24.6594 13.4322 24.6594C13.7551 24.6594 14.0168 24.3977 14.0168 24.0749Z" fill="#0F171C"/>
<path d="M17.678 24.0749V22.9265C17.678 22.6037 17.4162 22.3419 17.0934 22.3419C16.7705 22.3419 16.5088 22.6037 16.5088 22.9265V24.0749C16.5088 24.3977 16.7705 24.6594 17.0934 24.6594C17.4162 24.6595 17.678 24.3977 17.678 24.0749Z" fill="#0F171C"/>
<path d="M25.4241 24.0749V22.9265C25.4241 22.6037 25.1623 22.3419 24.8395 22.3419C24.5166 22.3419 24.2549 22.6037 24.2549 22.9265V24.0749C24.2549 24.3977 24.5166 24.6594 24.8395 24.6594C25.1622 24.6595 25.4241 24.3977 25.4241 24.0749Z" fill="#0F171C"/>
<path d="M28.4996 22.3419C28.1768 22.3419 27.915 22.6037 27.915 22.9265V24.0749C27.915 24.3977 28.1768 24.6594 28.4996 24.6594C28.8225 24.6594 29.0842 24.3977 29.0842 24.0749V22.9265C29.0842 22.6037 28.8225 22.3419 28.4996 22.3419Z" fill="#0F171C"/>
<path d="M32.1608 22.3419C31.8376 22.3419 31.5762 22.6037 31.5762 22.9265V24.0749C31.5762 24.3977 31.8377 24.6594 32.1608 24.6594C32.4838 24.6594 32.7453 24.3977 32.7453 24.0749V22.9265C32.7453 22.6037 32.4839 22.3419 32.1608 22.3419Z" fill="#0F171C"/>
<path d="M39.9059 24.6596C40.2291 24.6596 40.4905 24.3978 40.4905 24.075V22.9266C40.4905 22.6038 40.2289 22.342 39.9059 22.342C39.5827 22.342 39.3213 22.6038 39.3213 22.9266V24.075C39.3213 24.3977 39.5828 24.6596 39.9059 24.6596Z" fill="#0F171C"/>
<path d="M44.1526 24.0749V22.9265C44.1526 22.6037 43.8911 22.3419 43.568 22.3419C43.2449 22.3419 42.9834 22.6037 42.9834 22.9265V24.0749C42.9834 24.3977 43.2449 24.6594 43.568 24.6594C43.8911 24.6594 44.1526 24.3977 44.1526 24.0749Z" fill="#0F171C"/>
<path d="M47.8127 24.0749V22.9265C47.8127 22.6037 47.5512 22.3419 47.2281 22.3419C46.9051 22.3419 46.6436 22.6037 46.6436 22.9265V24.0749C46.6436 24.3977 46.9051 24.6594 47.2281 24.6594C47.5512 24.6594 47.8127 24.3977 47.8127 24.0749Z" fill="#0F171C"/>
<path d="M25.5946 32.6023H5.99572C5.67287 32.6023 5.41113 32.864 5.41113 33.1869C5.41113 33.5097 5.67287 33.7715 5.99572 33.7715H25.5946C25.9174 33.7715 26.1792 33.5097 26.1792 33.1869C26.1792 32.864 25.9174 32.6023 25.5946 32.6023Z" fill="#0F171C"/>
<path d="M19.6376 37.7513H5.99572C5.67287 37.7513 5.41113 38.0131 5.41113 38.3359C5.41113 38.6588 5.67287 38.9205 5.99572 38.9205H19.6376C19.9605 38.9205 20.2222 38.6588 20.2222 38.3359C20.2222 38.0131 19.9605 37.7513 19.6376 37.7513Z" fill="#0F171C"/>
<path d="M49.2505 30.7662H39.3863C38.0966 30.7662 37.0479 31.8153 37.0479 33.1047V38.4179C37.0479 39.7073 38.0967 40.7564 39.3863 40.7564H49.2505C50.5403 40.7564 51.589 39.7073 51.589 38.4179V33.1047C51.589 31.8153 50.5402 30.7662 49.2505 30.7662ZM50.4197 38.4179C50.4197 39.0627 49.895 39.5872 49.2504 39.5872H39.3862C38.7416 39.5872 38.2169 39.0629 38.2169 38.4179V33.1047C38.2169 32.4599 38.7416 31.9354 39.3862 31.9354H49.2504C49.895 31.9354 50.4197 32.4598 50.4197 33.1047V38.4179Z" fill="#0F171C"/>
</svg>
