<svg width="57" height="49" viewBox="0 0 57 49" fill="none" xmlns="http://www.w3.org/2000/svg">
<path fill-rule="evenodd" clip-rule="evenodd" d="M38.53 36.391H2.23998C1.00483 36.391 0 35.3862 0 34.151V2.24012C0 1.00492 1.00492 0 2.23998 0L47.5739 8.76741e-05C48.8091 8.76741e-05 49.814 1.00501 49.814 2.24016V22.0762C49.814 22.4042 49.5482 22.67 49.2202 22.67C48.8922 22.67 48.6264 22.4042 48.6264 22.0762L48.6265 2.24016C48.6265 1.65984 48.1543 1.18763 47.5738 1.18763H2.23989C1.65958 1.18763 1.18737 1.65984 1.18737 2.24016V34.1511C1.18737 34.7314 1.65958 35.2036 2.23989 35.2036H38.53C38.858 35.2036 39.1238 35.4694 39.1238 35.7974C39.1238 36.1254 38.8581 36.391 38.53 36.391Z" fill="#0F171C"/>
<path fill-rule="evenodd" clip-rule="evenodd" d="M37.233 32.3414H8.06278C7.73479 32.3414 7.46901 32.0756 7.46901 31.7476C7.46901 30.1897 6.2015 28.9222 4.64358 28.9222C4.31559 28.9222 4.0498 28.6564 4.0498 28.3284L4.04985 8.06766C4.04985 7.73967 4.31568 7.47389 4.64362 7.47389C6.20154 7.47389 7.46905 6.20638 7.46905 4.64846C7.46905 4.32047 7.73484 4.05469 8.06282 4.05469H41.7467C42.0747 4.05469 42.3405 4.32047 42.3405 4.64846C42.3405 6.20638 43.608 7.47389 45.1659 7.47389C45.4938 7.47389 45.7597 7.73967 45.7597 8.06766V20.4869C45.7597 20.8149 45.4938 21.0806 45.1659 21.0806C44.8379 21.0806 44.5721 20.8149 44.5721 20.4869V8.6176C42.8336 8.35879 41.4555 6.98086 41.1967 5.24219H8.6129C8.35404 6.98086 6.97615 8.35861 5.23744 8.6176V27.7785C6.97615 28.0373 8.35404 29.4152 8.6129 31.1539L37.2332 31.1539C37.5612 31.1539 37.827 31.4197 37.827 31.7477C37.827 32.0757 37.561 32.3414 37.233 32.3414Z" fill="#0F171C"/>
<path fill-rule="evenodd" clip-rule="evenodd" d="M37.2337 32.3414H8.0635C7.73551 32.3414 7.46973 32.0756 7.46973 31.7476C7.46973 31.4196 7.73551 31.1538 8.0635 31.1538H37.2337C37.5617 31.1538 37.8275 31.4196 37.8275 31.7476C37.8275 32.0756 37.5617 32.3414 37.2337 32.3414Z" fill="#0F171C"/>
<path fill-rule="evenodd" clip-rule="evenodd" d="M33.6704 10.662H16.7383C16.4103 10.662 16.1445 10.3962 16.1445 10.0683C16.1445 9.74027 16.4103 9.47449 16.7383 9.47449H33.6704C33.9983 9.47449 34.2641 9.74027 34.2641 10.0683C34.2641 10.3962 33.9985 10.662 33.6704 10.662Z" fill="#0F171C"/>
<path fill-rule="evenodd" clip-rule="evenodd" d="M33.6704 16.082H16.7383C16.4103 16.082 16.1445 15.8162 16.1445 15.4882C16.1445 15.1602 16.4103 14.8944 16.7383 14.8944H33.6704C33.9983 14.8944 34.2641 15.1602 34.2641 15.4882C34.2641 15.8162 33.9985 16.082 33.6704 16.082Z" fill="#0F171C"/>
<path fill-rule="evenodd" clip-rule="evenodd" d="M33.6704 21.5017H16.7383C16.4103 21.5017 16.1445 21.2358 16.1445 20.9079C16.1445 20.5799 16.4103 20.3141 16.7383 20.3141H33.6704C33.9983 20.3141 34.2641 20.5799 34.2641 20.9079C34.2641 21.2358 33.9985 21.5017 33.6704 21.5017Z" fill="#0F171C"/>
<path fill-rule="evenodd" clip-rule="evenodd" d="M33.6704 26.9215H16.7383C16.4103 26.9215 16.1445 26.6556 16.1445 26.3277C16.1445 25.9997 16.4103 25.7339 16.7383 25.7339H33.6704C33.9983 25.7339 34.2641 25.9997 34.2641 26.3277C34.2641 26.6556 33.9985 26.9215 33.6704 26.9215Z" fill="#0F171C"/>
<path fill-rule="evenodd" clip-rule="evenodd" d="M45.1658 39.4528C44.5696 39.4528 44.1636 38.9568 43.8374 38.5582C43.72 38.4148 43.5281 38.1803 43.4284 38.1201C43.3128 38.1371 43.0444 38.2827 42.8806 38.3715C42.525 38.5643 42.1573 38.7636 41.7634 38.7638C41.62 38.7638 41.4838 38.7369 41.3584 38.6836C40.8226 38.4572 40.6575 37.8517 40.5247 37.3651C40.479 37.1984 40.4056 36.9294 40.3436 36.8267C40.3228 36.8236 40.289 36.8205 40.2378 36.8205C40.1075 36.8205 39.9453 36.8401 39.7738 36.861C39.5748 36.8851 39.3691 36.91 39.1675 36.91C39.1683 36.91 39.1666 36.91 39.1675 36.91C39.0174 36.91 38.5697 36.9082 38.2501 36.5884C37.8423 36.1805 37.9141 35.5877 37.9773 35.0647C37.9984 34.8923 38.0321 34.6133 38.0126 34.4955C37.911 34.4333 37.6404 34.3593 37.4729 34.3137C36.9611 34.1739 36.3811 34.0155 36.1547 33.4799C35.9298 32.9483 36.2153 32.4219 36.4671 31.9577C36.5559 31.7938 36.7015 31.5257 36.7186 31.4099C36.6585 31.3101 36.4239 31.1182 36.2805 31.001C35.8818 30.6749 35.3857 30.269 35.3857 29.6726C35.3857 29.0762 35.8818 28.6704 36.2805 28.3443C36.4239 28.227 36.6585 28.0349 36.7186 27.9353C36.7015 27.8194 36.556 27.5513 36.4671 27.3873C36.2154 26.9231 35.9298 26.3969 36.1546 25.8655C36.3812 25.3297 36.9866 25.1644 37.4731 25.0316C37.6404 24.9858 37.911 24.9121 38.0126 24.8497C38.032 24.7319 37.9984 24.4529 37.9773 24.2805C37.9141 23.7574 37.8423 23.1646 38.2501 22.7568C38.5716 22.4352 39.02 22.4352 39.1675 22.4352C39.3693 22.4352 39.575 22.4601 39.7738 22.4842C39.9453 22.5051 40.1075 22.5247 40.2378 22.5247C40.289 22.5247 40.3228 22.5215 40.3436 22.5184C40.4056 22.4159 40.4792 22.1466 40.5248 21.9798C40.6645 21.468 40.8228 20.888 41.3584 20.6615C41.4839 20.6084 41.6199 20.5816 41.7633 20.5816C42.1574 20.5816 42.5252 20.781 42.8806 20.9738C43.0446 21.0627 43.3127 21.208 43.4285 21.2252C43.5282 21.1652 43.7201 20.9305 43.8375 20.7872C44.1636 20.3885 44.5695 19.8925 45.1659 19.8925C45.7623 19.8925 46.1681 20.3885 46.4942 20.7872C46.6115 20.9306 46.8036 21.1654 46.9031 21.2254C47.0188 21.2082 47.2869 21.0627 47.4509 20.974C47.8065 20.781 48.1742 20.5817 48.5684 20.5817C48.7117 20.5817 48.8478 20.6086 48.973 20.6616C49.5089 20.8883 49.6741 21.4937 49.8069 21.9803C49.8526 22.147 49.9259 22.4162 49.988 22.5188C50.0088 22.5218 50.0426 22.5251 50.0938 22.5251C50.2241 22.5251 50.3863 22.5055 50.5579 22.4846C50.7568 22.4604 50.9623 22.4357 51.1641 22.4357C51.3115 22.4357 51.7601 22.4357 52.0819 22.7573C52.4896 23.1651 52.4177 23.7578 52.3543 24.2809C52.3334 24.4533 52.2995 24.7321 52.3191 24.85C52.4206 24.9122 52.6913 24.9861 52.8586 25.0319C53.345 25.1646 53.9505 25.33 54.1769 25.8656C54.4019 26.3973 54.1164 26.9235 53.8645 27.3878C53.7758 27.5518 53.6303 27.8199 53.6131 27.9357C53.6731 28.0353 53.9078 28.2273 54.0513 28.3447C54.4498 28.6708 54.9458 29.0765 54.9458 29.6729C54.9458 30.2693 54.4498 30.6751 54.0511 31.0012C53.9078 31.1186 53.6732 31.3105 53.613 31.4101C53.6301 31.5261 53.7757 31.7942 53.8647 31.9581C54.1164 32.4224 54.4018 32.9485 54.1768 33.4803C53.9503 34.016 53.3449 34.1813 52.8585 34.3141C52.6912 34.3598 52.4206 34.4336 52.319 34.4959C52.2995 34.6139 52.3334 34.8926 52.3543 35.065C52.4176 35.5881 52.4895 36.1809 52.0818 36.5887C51.7602 36.9103 51.3118 36.9103 51.1643 36.9103C50.9624 36.9103 50.7568 36.8854 50.5579 36.8613C50.3863 36.8404 50.2241 36.8208 50.0938 36.8208C50.0426 36.8208 50.0088 36.8241 49.988 36.827C49.9259 36.9297 49.8524 37.1988 49.8069 37.3655C49.6673 37.8775 49.5088 38.4577 48.973 38.684C48.8478 38.7371 48.7117 38.764 48.5684 38.764C48.1742 38.764 47.8065 38.5645 47.4509 38.3717C47.2871 38.283 47.019 38.1375 46.9031 38.1203C46.8036 38.1804 46.6115 38.415 46.4942 38.5585C46.1681 38.9568 45.7622 39.4528 45.1658 39.4528ZM43.447 36.931C43.522 36.931 43.5961 36.9384 43.6669 36.953C44.1369 37.0492 44.466 37.4515 44.7566 37.8064C44.8719 37.9474 45.0562 38.1727 45.1657 38.2492C45.2753 38.1727 45.4595 37.9476 45.5749 37.8065C45.8653 37.4515 46.1945 37.0492 46.6645 36.953C46.7354 36.9384 46.8093 36.931 46.8844 36.931C47.2854 36.931 47.6571 37.1328 48.0167 37.3277C48.1546 37.4025 48.3685 37.5185 48.4968 37.5605C48.5553 37.4389 48.6195 37.2041 48.6607 37.0527C48.782 36.6089 48.9193 36.1058 49.3192 35.8355C49.521 35.6993 49.7739 35.6331 50.0933 35.6331C50.2953 35.6331 50.5012 35.658 50.7004 35.6822C50.8717 35.703 51.0337 35.7226 51.1638 35.7226C51.1834 35.7226 51.2003 35.722 51.2151 35.7214C51.2207 35.5867 51.1929 35.3571 51.1747 35.2076C51.1192 34.7489 51.0561 34.2293 51.328 33.8269C51.5983 33.4268 52.1014 33.2894 52.5452 33.1683C52.6966 33.1269 52.9314 33.0629 53.053 33.0042C53.0111 32.8759 52.8952 32.6621 52.8201 32.5241C52.5984 32.1153 52.347 31.6517 52.4453 31.1718C52.5413 30.7018 52.9438 30.3726 53.2988 30.0821C53.4399 29.9667 53.665 29.7826 53.7416 29.6729C53.665 29.5633 53.4399 29.3793 53.2988 29.2638C52.9438 28.9732 52.5415 28.644 52.4451 28.1738C52.3469 27.694 52.5983 27.2306 52.8201 26.8218C52.8949 26.6837 53.0109 26.47 53.053 26.3417C52.9313 26.2831 52.6965 26.2191 52.5451 26.1776C52.1013 26.0565 51.5982 25.9191 51.3279 25.5192C51.0561 25.1165 51.119 24.5969 51.1747 24.1382C51.1928 23.9888 51.2206 23.7592 51.215 23.6246C51.2002 23.6238 51.1832 23.6233 51.1636 23.6233C51.0335 23.6233 50.8715 23.643 50.7001 23.6637C50.5011 23.6879 50.2953 23.7127 50.0932 23.7127C49.774 23.7127 49.5209 23.6466 49.3193 23.5104C48.9193 23.24 48.782 22.7372 48.6609 22.2932C48.6195 22.1419 48.5555 21.907 48.4968 21.7852C48.3688 21.8272 48.1546 21.9433 48.0167 22.0181C47.6571 22.2133 47.2853 22.4149 46.8844 22.4149C46.8092 22.4149 46.7353 22.4075 46.6645 22.3931C46.1945 22.2969 45.8653 21.8944 45.5747 21.5394C45.4593 21.3983 45.2752 21.1732 45.1655 21.0967C45.0559 21.1733 44.8717 21.3985 44.7564 21.5395C44.4658 21.8946 44.1366 22.2969 43.6667 22.3931C43.5959 22.4076 43.5219 22.4149 43.4469 22.4149C43.0459 22.4149 42.674 22.2133 42.3144 22.0181C42.1765 21.9435 41.9627 21.8275 41.8344 21.7854C41.7757 21.9073 41.7117 22.1419 41.6703 22.2931C41.5492 22.737 41.4118 23.2402 41.0117 23.5105C40.8101 23.6467 40.5571 23.7129 40.2378 23.7129C40.0358 23.7129 39.8299 23.688 39.6309 23.6638C39.4594 23.643 39.2975 23.6234 39.1674 23.6234C39.1478 23.6234 39.131 23.6239 39.1161 23.6246C39.1106 23.7594 39.1384 23.9888 39.1565 24.1383C39.2119 24.597 39.275 25.1168 39.0031 25.5192C38.733 25.9192 38.2298 26.0566 37.7859 26.1777C37.6345 26.2191 37.3999 26.2831 37.2782 26.3418C37.3201 26.4701 37.4361 26.684 37.511 26.8218C37.7329 27.2307 37.9843 27.6943 37.8859 28.1742C37.7897 28.6442 37.3874 28.9734 37.0322 29.264C36.8913 29.3793 36.666 29.5635 36.5895 29.6731C36.6662 29.7828 36.8913 29.9669 37.0324 30.0823C37.3874 30.3727 37.7896 30.7017 37.8859 31.1718C37.9843 31.6518 37.7329 32.1154 37.511 32.5242C37.4363 32.6623 37.3203 32.8759 37.2782 33.0043C37.3999 33.0627 37.6347 33.1269 37.7859 33.1682C38.2298 33.2895 38.733 33.4269 39.0031 33.8269C39.2749 34.2293 39.2121 34.749 39.1565 35.2076C39.1384 35.3572 39.1106 35.5868 39.1161 35.7215C39.1308 35.7221 39.1478 35.7227 39.1674 35.7227C39.2975 35.7227 39.4594 35.7031 39.6309 35.6822C39.8299 35.6581 40.0358 35.6332 40.2378 35.6332C40.557 35.6332 40.8101 35.6993 41.0117 35.8356C41.4118 36.1059 41.5491 36.609 41.6701 37.0528C41.7116 37.2042 41.7756 37.4389 41.8342 37.5608C41.9622 37.5189 42.1764 37.4028 42.3143 37.3278C42.6742 37.1327 43.0461 36.931 43.447 36.931Z" fill="#0F171C"/>
<path fill-rule="evenodd" clip-rule="evenodd" d="M50.5806 48.767C50.3703 48.767 50.1742 48.6554 50.0675 48.4717L45.1664 40.0407L40.2654 48.4717C40.1516 48.6675 39.9368 48.783 39.7102 48.7655C39.4842 48.7495 39.287 48.6065 39.2018 48.3964L37.7727 44.8741L34.0075 45.3977C33.7831 45.4286 33.5598 45.3295 33.4333 45.1412C33.3065 44.953 33.2982 44.7091 33.4115 44.5128L38.3387 35.9787C38.5026 35.6947 38.8656 35.5969 39.1497 35.7615C39.4337 35.9255 39.531 36.2884 39.3669 36.5725L35.0473 44.0543L38.067 43.6345C38.3362 43.5973 38.5967 43.7472 38.6989 43.9994L39.8468 46.8284L44.6528 38.5609C44.759 38.3779 44.9545 38.2655 45.1661 38.2655C45.3776 38.2655 45.5732 38.3781 45.6793 38.5609L50.4855 46.8284L51.6335 43.9994C51.7357 43.7472 51.9967 43.5972 52.2655 43.6345L55.2849 44.0543L50.9653 36.5725C50.8013 36.2884 50.8985 35.9253 51.1826 35.7615C51.4663 35.5971 51.8297 35.6945 51.9936 35.9787L56.9207 44.5128C57.0341 44.7093 57.0259 44.9531 56.8989 45.1412C56.7724 45.3295 56.5491 45.4289 56.3248 45.3977L52.5597 44.8741L51.1305 48.3964C51.0451 48.6063 50.8482 48.7495 50.6221 48.7655C50.6084 48.7666 50.5945 48.767 50.5806 48.767Z" fill="#0F171C"/>
<path fill-rule="evenodd" clip-rule="evenodd" d="M45.1656 35.0356C42.2085 35.0356 39.8027 32.6298 39.8027 29.6729C39.8027 26.7159 42.2085 24.3102 45.1656 24.3102C48.1226 24.3102 50.5283 26.7159 50.5283 29.6729C50.5283 32.6298 48.1226 35.0356 45.1656 35.0356ZM45.1656 25.4977C42.8633 25.4977 40.9903 27.3706 40.9903 29.6729C40.9903 31.9752 42.8633 33.848 45.1656 33.848C47.4679 33.848 49.3408 31.9752 49.3408 29.6729C49.3408 27.3706 47.4679 25.4977 45.1656 25.4977Z" fill="#0F171C"/>
</svg>
