<svg width="19" height="19" viewBox="0 0 19 19" fill="none" xmlns="http://www.w3.org/2000/svg">
<path d="M13.2143 8H12.1575C12.095 7.69602 11.9856 7.42898 11.8294 7.19886C11.676 6.96875 11.4885 6.77557 11.2669 6.61932C11.0481 6.46023 10.8052 6.34091 10.5382 6.26136C10.2711 6.18182 9.99272 6.14205 9.70295 6.14205C9.17454 6.14205 8.69585 6.27557 8.26687 6.54261C7.84073 6.80966 7.50124 7.20312 7.2484 7.72301C6.9984 8.2429 6.8734 8.88068 6.8734 9.63636C6.8734 10.392 6.9984 11.0298 7.2484 11.5497C7.50124 12.0696 7.84073 12.4631 8.26687 12.7301C8.69585 12.9972 9.17454 13.1307 9.70295 13.1307C9.99272 13.1307 10.2711 13.0909 10.5382 13.0114C10.8052 12.9318 11.0481 12.8139 11.2669 12.6577C11.4885 12.4986 11.676 12.304 11.8294 12.0739C11.9856 11.8409 12.095 11.5739 12.1575 11.2727H13.2143C13.1348 11.7187 12.9899 12.1179 12.7797 12.4702C12.5694 12.8224 12.3081 13.1222 11.9956 13.3693C11.6831 13.6136 11.3322 13.7997 10.943 13.9276C10.5566 14.0554 10.1433 14.1193 9.70295 14.1193C8.95863 14.1193 8.2967 13.9375 7.71715 13.5739C7.13761 13.2102 6.68164 12.6932 6.34925 12.0227C6.01687 11.3523 5.85067 10.5568 5.85067 9.63636C5.85067 8.71591 6.01687 7.92045 6.34925 7.25C6.68164 6.57955 7.13761 6.0625 7.71715 5.69886C8.2967 5.33523 8.95863 5.15341 9.70295 5.15341C10.1433 5.15341 10.5566 5.21733 10.943 5.34517C11.3322 5.47301 11.6831 5.66051 11.9956 5.90767C12.3081 6.15199 12.5694 6.45028 12.7797 6.80256C12.9899 7.15199 13.1348 7.55114 13.2143 8Z" fill="white"/>
<circle cx="9.5" cy="9.5" r="9" stroke="white"/>
</svg>
