<svg width="63" height="54" viewBox="0 0 63 54" fill="none" xmlns="http://www.w3.org/2000/svg">
<path d="M13.502 51L10.436 46.17L11.612 45.47L15.14 51H13.502ZM8.476 46.688V45.456H11.346V46.688H8.476ZM11.696 46.254L10.394 46.058L13.404 41.2H14.902L11.696 46.254ZM2.904 51H1.266L4.78 45.47L5.97 46.17L2.904 51ZM8.896 51H7.524V41.2H8.896V51ZM7.944 46.688H5.06V45.456H7.944V46.688ZM4.724 46.254L1.504 41.2H3.002L5.998 46.058L4.724 46.254ZM16.608 51V41.2H24V42.39H17.994V45.19H21.046C22.2127 45.19 23.0994 45.4327 23.706 45.918C24.3127 46.4033 24.616 47.108 24.616 48.032C24.616 48.984 24.2847 49.7167 23.622 50.23C22.9687 50.7433 22.0307 51 20.808 51H16.608ZM17.994 49.894H20.752C21.564 49.894 22.1754 49.74 22.586 49.432C23.006 49.124 23.216 48.6667 23.216 48.06C23.216 46.884 22.3947 46.296 20.752 46.296H17.994V49.894ZM26.8483 51V41.2H28.2343V48.76L34.0303 41.2H35.3183V51H33.9463V43.454L28.1363 51H26.8483ZM41.4054 47.738V46.576H45.1714V47.738H41.4054ZM50.2446 51V50.048L54.2346 46.198C54.5892 45.862 54.8506 45.568 55.0186 45.316C55.1959 45.0547 55.3126 44.8167 55.3686 44.602C55.4339 44.378 55.4666 44.1633 55.4666 43.958C55.4666 43.454 55.2892 43.0573 54.9346 42.768C54.5799 42.4787 54.0619 42.334 53.3806 42.334C52.8579 42.334 52.3866 42.4227 51.9666 42.6C51.5466 42.768 51.1826 43.034 50.8746 43.398L49.9226 42.572C50.2959 42.096 50.7952 41.732 51.4206 41.48C52.0552 41.2187 52.7506 41.088 53.5066 41.088C54.1879 41.088 54.7806 41.2 55.2846 41.424C55.7886 41.6387 56.1759 41.9513 56.4466 42.362C56.7266 42.7727 56.8666 43.258 56.8666 43.818C56.8666 44.1353 56.8246 44.448 56.7406 44.756C56.6566 45.064 56.4979 45.3907 56.2646 45.736C56.0312 46.0813 55.6952 46.4687 55.2566 46.898L51.7006 50.328L51.3646 49.782H57.2866V51H50.2446ZM60.0896 51V41.76L60.6916 42.418H57.8776V41.2H61.4756V51H60.0896Z" fill="white"/>
<path d="M36.6829 1.1717C35.8117 1.81468 33.9761 3.17323 32.6072 4.19991C30.0042 6.13922 24.2589 10.4119 23.6367 10.8786C23.4396 11.0238 23.2529 11.1275 23.2426 11.1171C23.2218 11.0964 23.1492 11.1586 23.087 11.2415C23.0144 11.3245 21.9877 12.123 20.7847 13.0149C19.5921 13.8964 18.3995 14.7883 18.1402 14.9853C16.5639 16.1883 14.6142 17.6091 14.6142 17.5572C14.6142 17.5158 14.552 17.5572 14.4898 17.6506C14.4172 17.7439 13.4735 18.4802 12.3846 19.2891C11.306 20.0877 10.3001 20.8447 10.1549 20.9484C10.0097 21.0521 7.72817 22.7633 5.0733 24.7441C2.41843 26.7145 0.178384 28.4049 0.0954191 28.4878C-0.0393985 28.6123 -0.0393985 28.6227 0.147272 28.5604C0.261349 28.519 0.593207 28.3219 0.893955 28.1352C1.1947 27.9486 1.46434 27.793 1.49545 27.793C1.52656 27.793 1.7236 27.6789 1.94138 27.5545C2.1488 27.4197 2.55325 27.1811 2.84363 27.0152C3.4866 26.6626 5.79924 25.3144 6.81556 24.7129C7.24076 24.4641 7.63484 24.2463 7.69706 24.2359C7.76966 24.2255 7.84225 24.184 7.87336 24.1426C7.91484 24.0907 8.71338 23.624 10.2067 22.7633C10.4349 22.6388 11.0157 22.2966 11.5031 22.0166C14.7076 20.1499 15.6409 19.6314 15.6928 19.6832C15.7239 19.7143 15.755 19.6936 15.755 19.6417C15.755 19.5795 15.9521 19.4239 16.2009 19.2891C16.4395 19.1543 17.1758 18.7395 17.8291 18.3558C19.5092 17.3706 19.7995 17.215 19.7995 17.2772C19.7995 17.3083 19.8618 17.2669 19.9447 17.1839C20.0277 17.1009 21.3655 16.3024 22.9315 15.4002C24.487 14.4979 26.416 13.3779 27.2145 12.9112C28.0131 12.4445 29.4649 11.6045 30.4294 11.0445C31.4042 10.4845 32.8146 9.65485 33.5821 9.20891C34.3391 8.76298 35.0236 8.40001 35.0962 8.40001C35.1688 8.40001 35.2517 8.35852 35.2725 8.31704C35.3243 8.17185 37.9896 6.637 38.1762 6.637C38.2592 6.637 39.12 7.07257 40.0844 7.61184C41.6504 8.4726 45.7986 10.7334 47.5927 11.6979C47.9661 11.8949 48.412 12.1334 48.5779 12.2371C48.7542 12.3408 49.3557 12.6623 49.9261 12.9631C50.4965 13.2638 51.015 13.5438 51.0669 13.5853C51.1291 13.6268 51.6373 13.9068 52.2076 14.2075C52.778 14.5083 53.5973 14.9542 54.0225 15.1927C54.4477 15.4313 55.1321 15.8046 55.5262 16.0224C55.9307 16.2402 56.8018 16.7172 57.4759 17.0802C58.15 17.4535 58.7204 17.7335 58.7515 17.7024C58.7826 17.6817 58.4404 17.3395 57.9944 16.9454C57.5485 16.5513 57.1648 16.2091 57.1337 16.1779C57.1026 16.1468 56.9159 15.9913 56.7188 15.8253C56.5218 15.6594 56.0551 15.255 55.6818 14.9335C55.3084 14.6016 54.2403 13.6683 53.2966 12.8594C52.3528 12.0505 51.4402 11.2623 51.2743 11.1067C51.098 10.9615 50.6313 10.5571 50.2372 10.2149C49.8328 9.87263 49.4905 9.56151 49.4594 9.5304C49.4283 9.49929 48.889 9.02224 48.2461 8.48297C47.6135 7.93333 47.1157 7.45628 47.1572 7.42517C47.1883 7.39406 47.1572 7.36295 47.0846 7.36295C47.012 7.36295 46.1408 6.64738 45.1349 5.77625C44.1289 4.91549 42.5526 3.54657 41.64 2.7584C40.717 1.97024 39.6903 1.07837 39.3585 0.787991C38.6222 0.155384 38.4355 0.0101967 38.3422 -0.000173569C38.311 -0.000173569 37.5644 0.528727 36.6829 1.1717Z" fill="#FCEE0A"/>
<path d="M40.1569 8.57674C40.0325 8.59748 39.7836 8.78415 39.5969 8.99156C39.2754 9.36491 39.2754 9.38565 39.3169 10.2049C39.3584 10.879 39.431 11.1694 39.6799 11.6672C40.0117 12.3205 40.4265 12.8909 40.4369 12.6939C40.4369 12.642 40.3228 12.3413 40.1776 12.0509C40.0325 11.7501 39.9184 11.4805 39.9184 11.4287C39.9184 11.3457 40.0843 11.242 41.2873 10.5886L42.0962 10.1531L42.3658 10.4331L42.6458 10.7027L42.5836 10.3812C42.4903 9.92492 42.0755 9.31305 41.6088 8.95008C41.2147 8.63896 40.6132 8.48341 40.1569 8.57674Z" fill="#FCEE0A"/>
<path d="M36.8078 13.8656C36.1544 14.1871 34.3292 15.079 32.7632 15.8464C31.1973 16.6138 28.8431 17.7649 27.5261 18.4079C26.2194 19.0509 23.6993 20.285 21.926 21.1561C20.163 22.0273 17.6429 23.2614 16.3258 23.9043C13.5984 25.2421 6.23526 28.8615 4.10928 29.9193C3.33149 30.303 2.70925 30.6452 2.73 30.6763C2.76111 30.6971 3.04111 30.6037 3.3626 30.4482C3.68409 30.303 3.95373 30.1785 3.98484 30.1785C4.00558 30.1785 4.43077 29.9919 4.91819 29.7637C5.40561 29.5356 5.8308 29.3489 5.85154 29.3489C5.87229 29.3489 6.256 29.183 6.70193 28.9756C7.14787 28.7681 7.80122 28.4674 8.16419 28.3015C8.52716 28.1355 8.83827 28.0007 8.85902 28.0007C8.89013 28.0007 9.17013 27.8763 9.50199 27.7311C9.83385 27.5755 10.2487 27.3992 10.4146 27.3266C10.705 27.2022 11.5346 26.8288 12.2813 26.497C13.111 26.1236 14.0754 25.6881 14.3451 25.5533C14.511 25.4807 14.6769 25.4392 14.7288 25.4703C14.7806 25.5014 14.8221 25.4807 14.8221 25.4288C14.8221 25.377 14.9777 25.2733 15.1643 25.1903C15.3406 25.1177 15.8799 24.8792 16.357 24.6614C16.834 24.4436 17.2385 24.2673 17.2592 24.2673C17.2903 24.2673 17.5496 24.1532 17.8503 24.0184C18.1511 23.8836 18.8874 23.5517 19.4889 23.2821C20.0904 23.0125 20.7645 22.7117 20.9926 22.608C21.2208 22.5043 21.8948 22.2036 22.4963 21.9339C23.0978 21.6643 23.7719 21.3635 24.0001 21.2598C24.2282 21.1561 25.9601 20.3887 27.8372 19.5487C31.5499 17.8998 31.8195 17.7753 32.9499 17.2568C33.3751 17.0597 33.7277 16.9042 33.7484 16.9042C33.7692 16.9042 34.1218 16.7486 34.547 16.5516C35.6981 16.0227 36.0818 15.8671 36.0818 15.9501C36.0818 15.9916 36.1233 15.9708 36.1648 15.9086C36.2374 15.7842 38.0522 14.9338 38.2182 14.9338C38.3219 14.9338 41.8168 16.4064 42.6671 16.8005C42.7812 16.8627 44.1916 17.4538 45.7991 18.1279C47.4169 18.802 48.7132 19.3828 48.6821 19.4035C48.6614 19.4346 48.7236 19.4553 48.8273 19.4657C48.9414 19.4761 49.2317 19.5694 49.4806 19.6835C49.7192 19.7976 51.1192 20.3887 52.5711 21.0006C55.1119 22.0687 55.9104 22.411 56.3563 22.608C56.8023 22.8154 58.5238 23.5414 58.5549 23.5414C58.8349 23.5414 57.1445 22.6702 49.5325 18.885C39.7323 14.0108 38.2182 13.2745 38.0833 13.2745C38.0419 13.2745 37.4611 13.5441 36.8078 13.8656Z" fill="#FCEE0A"/>
<path d="M48.3709 13.544C47.8939 14.0626 47.9043 15.193 48.3917 16.0952C48.6924 16.6448 48.8169 16.6863 48.6406 16.1678C48.5783 15.9811 48.5576 15.7945 48.5991 15.753C48.765 15.5974 50.1962 15.1515 50.3413 15.2137C50.5488 15.2863 50.5384 15.2448 50.2687 14.7159C49.9369 14.0937 49.1384 13.2744 48.848 13.2744C48.7235 13.2744 48.5057 13.3988 48.3709 13.544Z" fill="#FCEE0A"/>
<path d="M40.468 17.2983C40.105 17.3502 39.6487 17.8791 39.5243 18.3665C39.3168 19.1754 39.7317 20.5443 40.4265 21.3636L40.7376 21.7266L40.385 20.8451C40.188 20.3576 40.022 19.9117 40.022 19.8599C40.022 19.7354 41.8473 18.9887 42.3554 18.9058C42.5525 18.8746 42.7184 18.9058 42.7599 18.968C42.8014 19.0302 42.8843 19.0821 42.9362 19.0821C43.0606 19.0821 42.708 18.5428 42.2621 18.0657C41.7643 17.5161 41.028 17.205 40.468 17.2983Z" fill="#FCEE0A"/>
<path d="M55.5985 17.5991C55.443 17.6302 55.2978 17.7754 55.2044 18.0139C55.0178 18.4391 55.1526 19.2791 55.4948 19.9013C55.9096 20.648 56.003 20.5547 55.7333 19.6628C55.557 19.0821 55.64 18.8747 56.0859 18.8747C56.8119 18.8643 57.0193 18.6361 56.76 18.1383C56.6356 17.8894 56.0133 17.4746 55.8682 17.5368C55.8474 17.5472 55.723 17.5783 55.5985 17.5991Z" fill="#FCEE0A"/>
<path d="M48.5676 20.8241C48.2254 21.0937 48.1113 21.3945 48.1113 22.0167C48.1113 22.6493 48.3084 23.2923 48.6402 23.759C48.9202 24.1634 48.9825 24.0908 48.7854 23.6138C48.7025 23.4064 48.6299 23.0849 48.6299 22.8878V22.5456L49.4388 22.3589C49.8743 22.2552 50.2892 22.1308 50.3617 22.0789C50.5173 21.9441 50.2684 21.4567 49.8121 20.99C49.4077 20.5856 48.9306 20.5234 48.5676 20.8241Z" fill="#FCEE0A"/>
<path d="M37.3648 23.1524C37.0533 23.2444 35.3502 23.7597 33.5745 24.3026C31.8091 24.8455 29.6803 25.4804 28.8495 25.7288C28.0188 25.9773 26.4611 26.4558 25.3707 26.787C23.2523 27.4403 20.1057 28.3973 18.4131 28.9034C17.8419 29.0782 16.4919 29.4923 15.4016 29.8236C14.3216 30.1548 12.9612 30.5689 12.39 30.7437C11.8189 30.9094 10.2612 31.3879 8.92162 31.7927C7.58201 32.2068 6.47087 32.5381 6.4501 32.5381C6.43971 32.5381 6.41895 32.5749 6.41895 32.6301C6.41895 32.7773 6.7201 32.7405 7.56124 32.5013C7.98701 32.3816 8.62046 32.216 8.96315 32.124C9.30584 32.0412 9.70046 31.9308 9.84584 31.894C9.99122 31.848 10.5935 31.6915 11.1958 31.5259C11.7981 31.3695 12.6185 31.1578 13.0131 31.0474C13.4181 30.937 13.8854 30.8266 14.0516 30.7806C14.3423 30.7161 15.7546 30.3481 17.7381 29.8144C18.2262 29.6764 18.7661 29.5383 18.9323 29.4923C19.1088 29.4555 19.3996 29.3727 19.5969 29.3175C19.7838 29.2715 19.9811 29.2531 20.0331 29.2807C20.085 29.3083 20.1265 29.2899 20.1265 29.2531C20.1265 29.2071 20.3446 29.1151 20.625 29.0506C20.895 28.977 21.3 28.8758 21.5284 28.8114C21.7569 28.747 22.2242 28.6274 22.5669 28.5353C23.3769 28.3237 25.5057 27.7624 26.9284 27.3759C27.1049 27.3299 27.728 27.1643 28.3303 27.0079C28.9326 26.8514 29.5349 26.695 29.6803 26.649C29.8257 26.6122 30.2203 26.5018 30.563 26.419C30.9057 26.3361 31.3003 26.2257 31.4457 26.1889C31.591 26.1429 32.131 25.9957 32.6399 25.8669C33.1591 25.7288 34.1872 25.462 34.9245 25.2595C35.6722 25.0571 36.4198 24.8639 36.586 24.8179C36.7625 24.7719 37.2298 24.643 37.6452 24.5326C38.3514 24.3486 38.4241 24.3486 39.0471 24.4774C39.4106 24.551 40.314 24.7443 41.0513 24.9007C41.799 25.0571 42.5675 25.2227 42.7648 25.2688C43.2425 25.3792 44.2394 25.5816 47.8532 26.3177C48.5074 26.4558 49.3278 26.6214 49.6705 26.695C50.5739 26.8882 52.3497 27.2471 53.2532 27.4311C53.6789 27.514 54.167 27.6244 54.3331 27.6704C54.4993 27.7164 54.7485 27.7532 54.8835 27.7532C55.0185 27.7532 55.112 27.7808 55.0912 27.8176C55.0601 27.8636 55.1743 27.9004 55.3404 27.9096C55.6312 27.928 55.9739 27.9924 57.8639 28.4065C58.5804 28.5538 58.892 28.5722 58.7466 28.4525C58.705 28.4249 57.3758 28.0477 56.057 27.7072C55.1951 27.4772 52.1732 26.6674 51.2801 26.419C50.792 26.2809 50.1897 26.1153 49.9301 26.0509C49.6705 25.9865 49.0682 25.8209 48.5801 25.6828C48.092 25.5448 47.5624 25.3976 47.3859 25.3608C46.8251 25.2227 46.0567 25.0111 45.1532 24.7627C43.7825 24.3854 40.2621 23.4376 39.4937 23.2444C39.3275 23.1984 39.016 23.1248 38.8187 23.0696C38.3306 22.9315 38.0398 22.9499 37.3648 23.1524Z" fill="#FCEE0A"/>
<path d="M55.6608 24.0285C55.246 24.5367 55.163 25.1796 55.4223 25.9367C55.5986 26.4448 56.0964 27.1086 56.0964 26.8286C56.0964 26.7352 56.0549 26.6419 56.003 26.6004C55.9408 26.5693 55.8682 26.3308 55.8267 26.0819C55.7438 25.5115 55.889 25.3041 56.366 25.3041C56.6771 25.3041 57.0297 25.0863 57.0297 24.8996C57.0297 24.7855 56.5319 24.1322 56.3349 23.9766C56.0964 23.8003 55.8475 23.8211 55.6608 24.0285Z" fill="#FCEE0A"/>
<path d="M40.5404 26.4761C39.8871 26.8183 39.5967 27.368 39.5967 28.2599C39.5967 28.7991 39.6485 29.0376 39.8767 29.4525C40.3434 30.3132 40.6649 30.448 40.3848 29.6599C40.1463 28.9754 40.1671 28.8925 40.7271 28.7369C40.9967 28.6539 41.5878 28.4776 42.0338 28.3324C42.8219 28.0939 42.8634 28.0836 42.9982 28.2702C43.1227 28.4465 43.1331 28.4362 43.1331 28.2287C43.1331 27.7206 42.5627 26.9324 41.8886 26.5176C41.4012 26.2272 41.0382 26.2168 40.5404 26.4761Z" fill="#FCEE0A"/>
<path d="M48.8783 28.2597C48.2146 28.7783 48.0071 29.9398 48.4012 30.8317C48.6086 31.3087 48.8057 31.5057 48.6812 31.122C48.5983 30.8628 48.7849 30.0642 48.9612 29.9605C49.0338 29.9087 49.3449 29.8672 49.6457 29.8672C50.4339 29.8672 50.5894 29.7635 50.4961 29.2761C50.4027 28.7264 50.2264 28.436 49.8427 28.2079C49.4072 27.9383 49.2724 27.9486 48.8783 28.2597Z" fill="#FCEE0A"/>
<path d="M55.713 30.2408C55.4537 30.3548 55.1426 31.0082 55.1426 31.4645C55.1426 31.8378 55.4122 32.6675 55.5263 32.6675C55.547 32.6675 55.5574 32.429 55.5574 32.1386C55.5678 31.4438 55.7856 31.1845 56.3041 31.2675C56.9678 31.3712 57.0819 31.06 56.6048 30.4482C56.4078 30.1889 56.0448 30.1059 55.713 30.2408Z" fill="#FCEE0A"/>
<path d="M25.5342 33.9844C25.6275 34.0052 25.7934 34.0052 25.8971 33.9844C25.9905 33.9533 25.9075 33.9326 25.7105 33.9326C25.5134 33.9326 25.4305 33.9533 25.5342 33.9844Z" fill="#FCEE0A"/>
</svg>
