<svg width="263" height="60" viewBox="0 0 263 60" fill="none" xmlns="http://www.w3.org/2000/svg">
<path d="M95.584 16V4.8H105.488V16H103.44V6.048L103.92 6.56H97.152L97.632 6.048V16H95.584ZM113.158 16.112C112.465 16.112 111.83 15.952 111.254 15.632C110.689 15.312 110.235 14.832 109.894 14.192C109.563 13.5413 109.398 12.72 109.398 11.728C109.398 10.7253 109.558 9.904 109.878 9.264C110.209 8.624 110.657 8.14933 111.222 7.84C111.787 7.52 112.433 7.36 113.158 7.36C114.001 7.36 114.742 7.54133 115.382 7.904C116.033 8.26667 116.545 8.77333 116.918 9.424C117.302 10.0747 117.494 10.8427 117.494 11.728C117.494 12.6133 117.302 13.3867 116.918 14.048C116.545 14.6987 116.033 15.2053 115.382 15.568C114.742 15.9307 114.001 16.112 113.158 16.112ZM108.422 19.104V7.456H110.326V9.472L110.262 11.744L110.422 14.016V19.104H108.422ZM112.934 14.4C113.414 14.4 113.841 14.2933 114.214 14.08C114.598 13.8667 114.902 13.5573 115.126 13.152C115.35 12.7467 115.462 12.272 115.462 11.728C115.462 11.1733 115.35 10.6987 115.126 10.304C114.902 9.89867 114.598 9.58933 114.214 9.376C113.841 9.16267 113.414 9.056 112.934 9.056C112.454 9.056 112.022 9.16267 111.638 9.376C111.254 9.58933 110.95 9.89867 110.726 10.304C110.502 10.6987 110.39 11.1733 110.39 11.728C110.39 12.272 110.502 12.7467 110.726 13.152C110.95 13.5573 111.254 13.8667 111.638 14.08C112.022 14.2933 112.454 14.4 112.934 14.4ZM123.293 16.112C122.418 16.112 121.639 15.9253 120.957 15.552C120.274 15.168 119.735 14.6453 119.341 13.984C118.946 13.3227 118.749 12.5707 118.749 11.728C118.749 10.8747 118.946 10.1227 119.341 9.472C119.735 8.81067 120.274 8.29333 120.957 7.92C121.639 7.54667 122.418 7.36 123.293 7.36C124.178 7.36 124.962 7.54667 125.645 7.92C126.338 8.29333 126.877 8.80533 127.261 9.456C127.655 10.1067 127.853 10.864 127.853 11.728C127.853 12.5707 127.655 13.3227 127.261 13.984C126.877 14.6453 126.338 15.168 125.645 15.552C124.962 15.9253 124.178 16.112 123.293 16.112ZM123.293 14.4C123.783 14.4 124.221 14.2933 124.605 14.08C124.989 13.8667 125.287 13.5573 125.501 13.152C125.725 12.7467 125.837 12.272 125.837 11.728C125.837 11.1733 125.725 10.6987 125.501 10.304C125.287 9.89867 124.989 9.58933 124.605 9.376C124.221 9.16267 123.789 9.056 123.309 9.056C122.818 9.056 122.381 9.16267 121.997 9.376C121.623 9.58933 121.325 9.89867 121.101 10.304C120.877 10.6987 120.765 11.1733 120.765 11.728C120.765 12.272 120.877 12.7467 121.101 13.152C121.325 13.5573 121.623 13.8667 121.997 14.08C122.381 14.2933 122.813 14.4 123.293 14.4ZM135.591 15.072V9.152H132.311L132.263 10.528C132.241 11.0187 132.209 11.4933 132.167 11.952C132.124 12.4 132.055 12.816 131.959 13.2C131.863 13.5733 131.724 13.8827 131.543 14.128C131.361 14.3733 131.121 14.5333 130.823 14.608L128.839 14.304C129.159 14.304 129.415 14.2027 129.607 14C129.809 13.7867 129.964 13.4987 130.071 13.136C130.188 12.7627 130.273 12.3413 130.327 11.872C130.38 11.392 130.417 10.896 130.439 10.384L130.551 7.456H137.591V15.072H135.591ZM128.535 17.904V14.304H138.855V17.904H136.983V16H130.391V17.904H128.535ZM145.825 16V14.272L145.713 13.904V10.88C145.713 10.2933 145.537 9.84 145.185 9.52C144.833 9.18933 144.3 9.024 143.585 9.024C143.105 9.024 142.63 9.09867 142.161 9.248C141.702 9.39733 141.313 9.60533 140.993 9.872L140.209 8.416C140.668 8.064 141.212 7.80267 141.841 7.632C142.481 7.45067 143.142 7.36 143.825 7.36C145.062 7.36 146.017 7.65867 146.689 8.256C147.372 8.84267 147.713 9.75467 147.713 10.992V16H145.825ZM143.137 16.112C142.497 16.112 141.937 16.0053 141.457 15.792C140.977 15.568 140.604 15.264 140.337 14.88C140.081 14.4853 139.953 14.0427 139.953 13.552C139.953 13.072 140.065 12.64 140.289 12.256C140.524 11.872 140.902 11.568 141.425 11.344C141.948 11.12 142.641 11.008 143.505 11.008H145.985V12.336H143.649C142.966 12.336 142.508 12.448 142.273 12.672C142.038 12.8853 141.921 13.152 141.921 13.472C141.921 13.8347 142.065 14.1227 142.353 14.336C142.641 14.5493 143.041 14.656 143.553 14.656C144.044 14.656 144.481 14.544 144.865 14.32C145.26 14.096 145.542 13.7653 145.713 13.328L146.049 14.528C145.857 15.0293 145.51 15.4187 145.009 15.696C144.518 15.9733 143.894 16.112 143.137 16.112ZM160.38 16L157.884 11.904L159.516 10.896L162.764 16H160.38ZM156.268 12.576V10.912H159.132V12.576H156.268ZM159.708 11.968L157.82 11.744L160.412 7.456H162.54L159.708 11.968ZM151.356 16H148.988L152.22 10.896L153.852 11.904L151.356 16ZM156.86 16H154.876V7.456H156.86V16ZM155.468 12.576H152.62V10.912H155.468V12.576ZM152.028 11.968L149.196 7.456H151.324L153.9 11.744L152.028 11.968ZM169.278 16V14.272L169.166 13.904V10.88C169.166 10.2933 168.99 9.84 168.638 9.52C168.286 9.18933 167.753 9.024 167.038 9.024C166.558 9.024 166.083 9.09867 165.614 9.248C165.155 9.39733 164.766 9.60533 164.446 9.872L163.662 8.416C164.121 8.064 164.665 7.80267 165.294 7.632C165.934 7.45067 166.595 7.36 167.278 7.36C168.515 7.36 169.47 7.65867 170.142 8.256C170.825 8.84267 171.166 9.75467 171.166 10.992V16H169.278ZM166.59 16.112C165.95 16.112 165.39 16.0053 164.91 15.792C164.43 15.568 164.057 15.264 163.79 14.88C163.534 14.4853 163.406 14.0427 163.406 13.552C163.406 13.072 163.518 12.64 163.742 12.256C163.977 11.872 164.355 11.568 164.878 11.344C165.401 11.12 166.094 11.008 166.958 11.008H169.438V12.336H167.102C166.419 12.336 165.961 12.448 165.726 12.672C165.491 12.8853 165.374 13.152 165.374 13.472C165.374 13.8347 165.518 14.1227 165.806 14.336C166.094 14.5493 166.494 14.656 167.006 14.656C167.497 14.656 167.934 14.544 168.318 14.32C168.713 14.096 168.995 13.7653 169.166 13.328L169.502 14.528C169.31 15.0293 168.963 15.4187 168.462 15.696C167.971 15.9733 167.347 16.112 166.59 16.112ZM178.063 16V7.456H180.063V13.088L184.783 7.456H186.607V16H184.607V10.368L179.903 16H178.063ZM193.719 16V7.456H201.911V16H199.927V8.688L200.391 9.152H195.255L195.719 8.688V16H193.719ZM208.418 16.112C207.543 16.112 206.764 15.9253 206.082 15.552C205.399 15.168 204.86 14.6453 204.466 13.984C204.071 13.3227 203.874 12.5707 203.874 11.728C203.874 10.8747 204.071 10.1227 204.466 9.472C204.86 8.81067 205.399 8.29333 206.082 7.92C206.764 7.54667 207.543 7.36 208.418 7.36C209.303 7.36 210.087 7.54667 210.77 7.92C211.463 8.29333 212.002 8.80533 212.386 9.456C212.78 10.1067 212.978 10.864 212.978 11.728C212.978 12.5707 212.78 13.3227 212.386 13.984C212.002 14.6453 211.463 15.168 210.77 15.552C210.087 15.9253 209.303 16.112 208.418 16.112ZM208.418 14.4C208.908 14.4 209.346 14.2933 209.73 14.08C210.114 13.8667 210.412 13.5573 210.626 13.152C210.85 12.7467 210.962 12.272 210.962 11.728C210.962 11.1733 210.85 10.6987 210.626 10.304C210.412 9.89867 210.114 9.58933 209.73 9.376C209.346 9.16267 208.914 9.056 208.434 9.056C207.943 9.056 207.506 9.16267 207.122 9.376C206.748 9.58933 206.45 9.89867 206.226 10.304C206.002 10.6987 205.89 11.1733 205.89 11.728C205.89 12.272 206.002 12.7467 206.226 13.152C206.45 13.5573 206.748 13.8667 207.122 14.08C207.506 14.2933 207.938 14.4 208.418 14.4ZM221.081 16L217.993 11.904L219.625 10.896L223.433 16H221.081ZM214.953 16V7.456H216.953V16H214.953ZM216.361 12.576V10.912H219.257V12.576H216.361ZM219.817 11.968L217.945 11.744L221.081 7.456H223.225L219.817 11.968ZM225.128 19.216C224.712 19.216 224.296 19.1467 223.88 19.008C223.464 18.8693 223.117 18.6773 222.84 18.432L223.64 16.96C223.842 17.1413 224.072 17.2853 224.328 17.392C224.584 17.4987 224.845 17.552 225.112 17.552C225.474 17.552 225.768 17.4613 225.992 17.28C226.216 17.0987 226.424 16.7947 226.616 16.368L227.112 15.248L227.272 15.008L230.504 7.456H232.424L228.424 16.688C228.157 17.328 227.858 17.8347 227.528 18.208C227.208 18.5813 226.845 18.8427 226.44 18.992C226.045 19.1413 225.608 19.216 225.128 19.216ZM226.888 16.304L223.032 7.456H225.112L228.248 14.832L226.888 16.304ZM233.813 16V7.456H242.005V16H240.021V8.688L240.485 9.152H235.349L235.813 8.688V16H233.813ZM250.831 16L247.743 11.904L249.375 10.896L253.183 16H250.831ZM244.703 16V7.456H246.703V16H244.703ZM246.111 12.576V10.912H249.007V12.576H246.111ZM249.567 11.968L247.695 11.744L250.831 7.456H252.975L249.567 11.968ZM259.622 16V14.272L259.51 13.904V10.88C259.51 10.2933 259.334 9.84 258.982 9.52C258.63 9.18933 258.096 9.024 257.382 9.024C256.902 9.024 256.427 9.09867 255.958 9.248C255.499 9.39733 255.11 9.60533 254.79 9.872L254.006 8.416C254.464 8.064 255.008 7.80267 255.638 7.632C256.278 7.45067 256.939 7.36 257.622 7.36C258.859 7.36 259.814 7.65867 260.486 8.256C261.168 8.84267 261.51 9.75467 261.51 10.992V16H259.622ZM256.934 16.112C256.294 16.112 255.734 16.0053 255.254 15.792C254.774 15.568 254.4 15.264 254.134 14.88C253.878 14.4853 253.75 14.0427 253.75 13.552C253.75 13.072 253.862 12.64 254.086 12.256C254.32 11.872 254.699 11.568 255.222 11.344C255.744 11.12 256.438 11.008 257.302 11.008H259.782V12.336H257.446C256.763 12.336 256.304 12.448 256.07 12.672C255.835 12.8853 255.718 13.152 255.718 13.472C255.718 13.8347 255.862 14.1227 256.15 14.336C256.438 14.5493 256.838 14.656 257.35 14.656C257.84 14.656 258.278 14.544 258.662 14.32C259.056 14.096 259.339 13.7653 259.51 13.328L259.846 14.528C259.654 15.0293 259.307 15.4187 258.806 15.696C258.315 15.9733 257.691 16.112 256.934 16.112ZM105.536 36L103.04 31.904L104.672 30.896L107.92 36H105.536ZM101.424 32.576V30.912H104.288V32.576H101.424ZM104.864 31.968L102.976 31.744L105.568 27.456H107.696L104.864 31.968ZM96.512 36H94.144L97.376 30.896L99.008 31.904L96.512 36ZM102.016 36H100.032V27.456H102.016V36ZM100.624 32.576H97.776V30.912H100.624V32.576ZM97.184 31.968L94.352 27.456H96.48L99.056 31.744L97.184 31.968ZM113.109 36.112C112.16 36.112 111.328 35.9253 110.613 35.552C109.909 35.168 109.36 34.6453 108.965 33.984C108.581 33.3227 108.389 32.5707 108.389 31.728C108.389 30.8747 108.576 30.1227 108.949 29.472C109.333 28.8107 109.856 28.2933 110.517 27.92C111.189 27.5467 111.952 27.36 112.805 27.36C113.637 27.36 114.379 27.5413 115.029 27.904C115.68 28.2667 116.192 28.7787 116.565 29.44C116.939 30.1013 117.125 30.88 117.125 31.776C117.125 31.8613 117.12 31.9573 117.109 32.064C117.109 32.1707 117.104 32.272 117.093 32.368H109.973V31.04H116.037L115.253 31.456C115.264 30.9653 115.163 30.5333 114.949 30.16C114.736 29.7867 114.443 29.4933 114.069 29.28C113.707 29.0667 113.285 28.96 112.805 28.96C112.315 28.96 111.883 29.0667 111.509 29.28C111.147 29.4933 110.859 29.792 110.645 30.176C110.443 30.5493 110.341 30.992 110.341 31.504V31.824C110.341 32.336 110.459 32.7893 110.693 33.184C110.928 33.5787 111.259 33.8827 111.685 34.096C112.112 34.3093 112.603 34.416 113.157 34.416C113.637 34.416 114.069 34.3413 114.453 34.192C114.837 34.0427 115.179 33.808 115.477 33.488L116.549 34.72C116.165 35.168 115.68 35.5147 115.093 35.76C114.517 35.9947 113.856 36.112 113.109 36.112ZM117.955 35.984L118.051 34.304C118.126 34.3147 118.195 34.3253 118.259 34.336C118.323 34.3467 118.382 34.352 118.435 34.352C118.766 34.352 119.022 34.2507 119.203 34.048C119.385 33.8453 119.518 33.5733 119.603 33.232C119.699 32.88 119.763 32.4907 119.795 32.064C119.838 31.6267 119.87 31.1893 119.891 30.752L120.035 27.456H126.947V36H124.947V28.608L125.411 29.152H121.347L121.779 28.592L121.667 30.848C121.635 31.6053 121.571 32.3093 121.475 32.96C121.39 33.6 121.251 34.16 121.059 34.64C120.878 35.12 120.622 35.4933 120.291 35.76C119.971 36.0267 119.561 36.16 119.059 36.16C118.899 36.16 118.723 36.144 118.531 36.112C118.35 36.08 118.158 36.0373 117.955 35.984ZM133.625 36.112C132.676 36.112 131.844 35.9253 131.129 35.552C130.425 35.168 129.876 34.6453 129.481 33.984C129.097 33.3227 128.905 32.5707 128.905 31.728C128.905 30.8747 129.092 30.1227 129.465 29.472C129.849 28.8107 130.372 28.2933 131.033 27.92C131.705 27.5467 132.468 27.36 133.321 27.36C134.153 27.36 134.894 27.5413 135.545 27.904C136.196 28.2667 136.708 28.7787 137.081 29.44C137.454 30.1013 137.641 30.88 137.641 31.776C137.641 31.8613 137.636 31.9573 137.625 32.064C137.625 32.1707 137.62 32.272 137.609 32.368H130.489V31.04H136.553L135.769 31.456C135.78 30.9653 135.678 30.5333 135.465 30.16C135.252 29.7867 134.958 29.4933 134.585 29.28C134.222 29.0667 133.801 28.96 133.321 28.96C132.83 28.96 132.398 29.0667 132.025 29.28C131.662 29.4933 131.374 29.792 131.161 30.176C130.958 30.5493 130.857 30.992 130.857 31.504V31.824C130.857 32.336 130.974 32.7893 131.209 33.184C131.444 33.5787 131.774 33.8827 132.201 34.096C132.628 34.3093 133.118 34.416 133.673 34.416C134.153 34.416 134.585 34.3413 134.969 34.192C135.353 34.0427 135.694 33.808 135.993 33.488L137.065 34.72C136.681 35.168 136.196 35.5147 135.609 35.76C135.033 35.9947 134.372 36.112 133.625 36.112ZM142.392 36.144C141.741 36.144 141.096 36.0693 140.456 35.92C139.826 35.76 139.256 35.536 138.744 35.248L139.304 33.76C139.72 33.9947 140.189 34.176 140.712 34.304C141.234 34.432 141.757 34.496 142.28 34.496C142.728 34.496 143.112 34.4533 143.432 34.368C143.752 34.272 143.997 34.1333 144.168 33.952C144.349 33.7707 144.44 33.5627 144.44 33.328C144.44 32.9867 144.29 32.7307 143.992 32.56C143.704 32.3787 143.288 32.288 142.744 32.288H141.096V30.944H142.584C142.925 30.944 143.213 30.9067 143.448 30.832C143.693 30.7573 143.88 30.6453 144.008 30.496C144.136 30.3467 144.2 30.1707 144.2 29.968C144.2 29.7653 144.12 29.5893 143.96 29.44C143.81 29.28 143.592 29.1627 143.304 29.088C143.016 29.0027 142.669 28.96 142.264 28.96C141.837 28.96 141.394 29.0133 140.936 29.12C140.488 29.2267 140.029 29.3813 139.56 29.584L139.048 28.112C139.592 27.8667 140.12 27.68 140.632 27.552C141.154 27.4133 141.672 27.3387 142.184 27.328C142.962 27.296 143.656 27.376 144.264 27.568C144.872 27.76 145.352 28.0373 145.704 28.4C146.056 28.7627 146.232 29.1893 146.232 29.68C146.232 30.0853 146.104 30.4533 145.848 30.784C145.602 31.104 145.261 31.3547 144.824 31.536C144.397 31.7173 143.906 31.808 143.352 31.808L143.416 31.376C144.365 31.376 145.112 31.568 145.656 31.952C146.2 32.3253 146.472 32.8373 146.472 33.488C146.472 34.0107 146.296 34.4747 145.944 34.88C145.592 35.2747 145.106 35.584 144.488 35.808C143.88 36.032 143.181 36.144 142.392 36.144ZM152.34 36.112C151.465 36.112 150.686 35.9253 150.004 35.552C149.321 35.168 148.782 34.6453 148.388 33.984C147.993 33.3227 147.796 32.5707 147.796 31.728C147.796 30.8747 147.993 30.1227 148.388 29.472C148.782 28.8107 149.321 28.2933 150.004 27.92C150.686 27.5467 151.465 27.36 152.34 27.36C153.225 27.36 154.009 27.5467 154.692 27.92C155.385 28.2933 155.924 28.8053 156.308 29.456C156.702 30.1067 156.9 30.864 156.9 31.728C156.9 32.5707 156.702 33.3227 156.308 33.984C155.924 34.6453 155.385 35.168 154.692 35.552C154.009 35.9253 153.225 36.112 152.34 36.112ZM152.34 34.4C152.83 34.4 153.268 34.2933 153.652 34.08C154.036 33.8667 154.334 33.5573 154.548 33.152C154.772 32.7467 154.884 32.272 154.884 31.728C154.884 31.1733 154.772 30.6987 154.548 30.304C154.334 29.8987 154.036 29.5893 153.652 29.376C153.268 29.1627 152.836 29.056 152.356 29.056C151.865 29.056 151.428 29.1627 151.044 29.376C150.67 29.5893 150.372 29.8987 150.148 30.304C149.924 30.6987 149.812 31.1733 149.812 31.728C149.812 32.272 149.924 32.7467 150.148 33.152C150.372 33.5573 150.67 33.8667 151.044 34.08C151.428 34.2933 151.86 34.4 152.34 34.4ZM162.955 36.16C162.251 36.16 161.622 36.0533 161.067 35.84C160.513 35.6267 160.033 35.3013 159.627 34.864C159.233 34.416 158.929 33.8507 158.715 33.168C158.502 32.4853 158.395 31.6747 158.395 30.736C158.395 30.0533 158.454 29.4293 158.571 28.864C158.689 28.2987 158.865 27.792 159.099 27.344C159.334 26.8853 159.627 26.48 159.979 26.128C160.342 25.776 160.763 25.4827 161.243 25.248C161.723 25.0133 162.267 24.832 162.875 24.704L166.843 23.856L167.131 25.648L163.531 26.384C163.329 26.4267 163.083 26.4907 162.795 26.576C162.518 26.6507 162.23 26.768 161.931 26.928C161.643 27.0773 161.371 27.296 161.115 27.584C160.87 27.8613 160.667 28.224 160.507 28.672C160.358 29.1093 160.283 29.6587 160.283 30.32C160.283 30.5227 160.289 30.6773 160.299 30.784C160.321 30.88 160.337 30.9867 160.347 31.104C160.369 31.2107 160.379 31.3707 160.379 31.584L159.627 30.8C159.841 30.256 160.134 29.792 160.507 29.408C160.891 29.0133 161.334 28.7147 161.835 28.512C162.347 28.2987 162.902 28.192 163.499 28.192C164.299 28.192 165.009 28.3573 165.627 28.688C166.246 29.0187 166.731 29.4827 167.083 30.08C167.435 30.6773 167.611 31.3547 167.611 32.112C167.611 32.9013 167.419 33.6 167.035 34.208C166.651 34.816 166.107 35.296 165.403 35.648C164.71 35.9893 163.894 36.16 162.955 36.16ZM163.115 34.544C163.595 34.544 164.017 34.4427 164.379 34.24C164.753 34.0267 165.041 33.7387 165.243 33.376C165.457 33.0133 165.563 32.608 165.563 32.16C165.563 31.712 165.457 31.3227 165.243 30.992C165.041 30.6507 164.753 30.3787 164.379 30.176C164.017 29.9733 163.585 29.872 163.083 29.872C162.603 29.872 162.171 29.968 161.787 30.16C161.414 30.352 161.121 30.6187 160.907 30.96C160.705 31.2907 160.603 31.6747 160.603 32.112C160.603 32.56 160.71 32.9707 160.923 33.344C161.137 33.7173 161.43 34.0107 161.803 34.224C162.187 34.4373 162.625 34.544 163.115 34.544ZM173.531 36.112C172.582 36.112 171.75 35.9253 171.035 35.552C170.331 35.168 169.782 34.6453 169.387 33.984C169.003 33.3227 168.811 32.5707 168.811 31.728C168.811 30.8747 168.998 30.1227 169.371 29.472C169.755 28.8107 170.278 28.2933 170.939 27.92C171.611 27.5467 172.374 27.36 173.227 27.36C174.059 27.36 174.8 27.5413 175.451 27.904C176.102 28.2667 176.614 28.7787 176.987 29.44C177.36 30.1013 177.547 30.88 177.547 31.776C177.547 31.8613 177.542 31.9573 177.531 32.064C177.531 32.1707 177.526 32.272 177.515 32.368H170.395V31.04H176.459L175.675 31.456C175.686 30.9653 175.584 30.5333 175.371 30.16C175.158 29.7867 174.864 29.4933 174.491 29.28C174.128 29.0667 173.707 28.96 173.227 28.96C172.736 28.96 172.304 29.0667 171.931 29.28C171.568 29.4933 171.28 29.792 171.067 30.176C170.864 30.5493 170.763 30.992 170.763 31.504V31.824C170.763 32.336 170.88 32.7893 171.115 33.184C171.35 33.5787 171.68 33.8827 172.107 34.096C172.534 34.3093 173.024 34.416 173.579 34.416C174.059 34.416 174.491 34.3413 174.875 34.192C175.259 34.0427 175.6 33.808 175.899 33.488L176.971 34.72C176.587 35.168 176.102 35.5147 175.515 35.76C174.939 35.9947 174.278 36.112 173.531 36.112ZM181.183 36V28.672L181.647 29.152H178.175V27.456H186.175V29.152H182.719L183.183 28.672V36H181.183ZM191.058 36.112C190.184 36.112 189.405 35.9253 188.722 35.552C188.04 35.168 187.501 34.6453 187.106 33.984C186.712 33.3227 186.514 32.5707 186.514 31.728C186.514 30.8747 186.712 30.1227 187.106 29.472C187.501 28.8107 188.04 28.2933 188.722 27.92C189.405 27.5467 190.184 27.36 191.058 27.36C191.944 27.36 192.728 27.5467 193.41 27.92C194.104 28.2933 194.642 28.8053 195.026 29.456C195.421 30.1067 195.618 30.864 195.618 31.728C195.618 32.5707 195.421 33.3227 195.026 33.984C194.642 34.6453 194.104 35.168 193.41 35.552C192.728 35.9253 191.944 36.112 191.058 36.112ZM191.058 34.4C191.549 34.4 191.986 34.2933 192.37 34.08C192.754 33.8667 193.053 33.5573 193.266 33.152C193.49 32.7467 193.602 32.272 193.602 31.728C193.602 31.1733 193.49 30.6987 193.266 30.304C193.053 29.8987 192.754 29.5893 192.37 29.376C191.986 29.1627 191.554 29.056 191.074 29.056C190.584 29.056 190.146 29.1627 189.762 29.376C189.389 29.5893 189.09 29.8987 188.866 30.304C188.642 30.6987 188.53 31.1733 188.53 31.728C188.53 32.272 188.642 32.7467 188.866 33.152C189.09 33.5573 189.389 33.8667 189.762 34.08C190.146 34.2933 190.578 34.4 191.058 34.4ZM197.594 36V27.456H199.594V30.928H203.898V27.456H205.898V36H203.898V32.624H199.594V36H197.594ZM208.578 36V27.456H210.578V30.928H214.882V27.456H216.882V36H214.882V32.624H210.578V36H208.578ZM228.187 36V27.456H230.187V36H228.187ZM223.723 30.272C224.821 30.272 225.653 30.5173 226.219 31.008C226.795 31.4987 227.083 32.192 227.083 33.088C227.083 34.016 226.763 34.7413 226.123 35.264C225.493 35.776 224.597 36.0267 223.435 36.016L219.563 36V27.456H221.563V30.256L223.723 30.272ZM223.259 34.544C223.845 34.5547 224.293 34.432 224.603 34.176C224.912 33.92 225.067 33.5467 225.067 33.056C225.067 32.5653 224.912 32.2133 224.603 32C224.304 31.776 223.856 31.6587 223.259 31.648L221.563 31.632V34.528L223.259 34.544ZM231.611 36L235.371 31.104L235.339 32.176L231.755 27.456H233.979L236.491 30.816H235.643L238.171 27.456H240.331L236.715 32.176L236.731 31.104L240.475 36H238.219L235.579 32.432L236.411 32.544L233.819 36H231.611ZM95.344 56V47.456H97.344V53.088L102.064 47.456H103.888V56H101.888V50.368L97.184 56H95.344ZM109.173 56.144C108.522 56.144 107.877 56.0693 107.237 55.92C106.608 55.76 106.037 55.536 105.525 55.248L106.085 53.76C106.501 53.9947 106.97 54.176 107.493 54.304C108.016 54.432 108.538 54.496 109.061 54.496C109.509 54.496 109.893 54.4533 110.213 54.368C110.533 54.272 110.778 54.1333 110.949 53.952C111.13 53.7707 111.221 53.5627 111.221 53.328C111.221 52.9867 111.072 52.7307 110.773 52.56C110.485 52.3787 110.069 52.288 109.525 52.288H107.877V50.944H109.365C109.706 50.944 109.994 50.9067 110.229 50.832C110.474 50.7573 110.661 50.6453 110.789 50.496C110.917 50.3467 110.981 50.1707 110.981 49.968C110.981 49.7653 110.901 49.5893 110.741 49.44C110.592 49.28 110.373 49.1627 110.085 49.088C109.797 49.0027 109.45 48.96 109.045 48.96C108.618 48.96 108.176 49.0133 107.717 49.12C107.269 49.2267 106.81 49.3813 106.341 49.584L105.829 48.112C106.373 47.8667 106.901 47.68 107.413 47.552C107.936 47.4133 108.453 47.3387 108.965 47.328C109.744 47.296 110.437 47.376 111.045 47.568C111.653 47.76 112.133 48.0373 112.485 48.4C112.837 48.7627 113.013 49.1893 113.013 49.68C113.013 50.0853 112.885 50.4533 112.629 50.784C112.384 51.104 112.042 51.3547 111.605 51.536C111.178 51.7173 110.688 51.808 110.133 51.808L110.197 51.376C111.146 51.376 111.893 51.568 112.437 51.952C112.981 52.3253 113.253 52.8373 113.253 53.488C113.253 54.0107 113.077 54.4747 112.725 54.88C112.373 55.2747 111.888 55.584 111.269 55.808C110.661 56.032 109.962 56.144 109.173 56.144ZM121.169 55.072V49.152H117.889L117.841 50.528C117.819 51.0187 117.787 51.4933 117.745 51.952C117.702 52.4 117.633 52.816 117.537 53.2C117.441 53.5733 117.302 53.8827 117.121 54.128C116.939 54.3733 116.699 54.5333 116.401 54.608L114.417 54.304C114.737 54.304 114.993 54.2027 115.185 54C115.387 53.7867 115.542 53.4987 115.649 53.136C115.766 52.7627 115.851 52.3413 115.905 51.872C115.958 51.392 115.995 50.896 116.017 50.384L116.129 47.456H123.169V55.072H121.169ZM114.113 57.904V54.304H124.433V57.904H122.561V56H115.969V57.904H114.113ZM130.203 56.112C129.254 56.112 128.422 55.9253 127.707 55.552C127.003 55.168 126.454 54.6453 126.059 53.984C125.675 53.3227 125.483 52.5707 125.483 51.728C125.483 50.8747 125.67 50.1227 126.043 49.472C126.427 48.8107 126.95 48.2933 127.611 47.92C128.283 47.5467 129.046 47.36 129.899 47.36C130.731 47.36 131.472 47.5413 132.123 47.904C132.774 48.2667 133.286 48.7787 133.659 49.44C134.032 50.1013 134.219 50.88 134.219 51.776C134.219 51.8613 134.214 51.9573 134.203 52.064C134.203 52.1707 134.198 52.272 134.187 52.368H127.067V51.04H133.131L132.347 51.456C132.358 50.9653 132.256 50.5333 132.043 50.16C131.83 49.7867 131.536 49.4933 131.163 49.28C130.8 49.0667 130.379 48.96 129.899 48.96C129.408 48.96 128.976 49.0667 128.603 49.28C128.24 49.4933 127.952 49.792 127.739 50.176C127.536 50.5493 127.435 50.992 127.435 51.504V51.824C127.435 52.336 127.552 52.7893 127.787 53.184C128.022 53.5787 128.352 53.8827 128.779 54.096C129.206 54.3093 129.696 54.416 130.251 54.416C130.731 54.416 131.163 54.3413 131.547 54.192C131.931 54.0427 132.272 53.808 132.571 53.488L133.643 54.72C133.259 55.168 132.774 55.5147 132.187 55.76C131.611 55.9947 130.95 56.112 130.203 56.112ZM135.049 55.984L135.145 54.304C135.22 54.3147 135.289 54.3253 135.353 54.336C135.417 54.3467 135.476 54.352 135.529 54.352C135.86 54.352 136.116 54.2507 136.297 54.048C136.478 53.8453 136.612 53.5733 136.697 53.232C136.793 52.88 136.857 52.4907 136.889 52.064C136.932 51.6267 136.964 51.1893 136.985 50.752L137.129 47.456H144.041V56H142.041V48.608L142.505 49.152H138.441L138.873 48.592L138.761 50.848C138.729 51.6053 138.665 52.3093 138.569 52.96C138.484 53.6 138.345 54.16 138.153 54.64C137.972 55.12 137.716 55.4933 137.385 55.76C137.065 56.0267 136.654 56.16 136.153 56.16C135.993 56.16 135.817 56.144 135.625 56.112C135.444 56.08 135.252 56.0373 135.049 55.984ZM146.735 56V47.456H148.735V53.088L153.455 47.456H155.279V56H153.279V50.368L148.575 56H146.735ZM157.969 56V47.456H159.969V53.088L164.689 47.456H166.513V56H164.513V50.368L159.809 56H157.969ZM162.113 46.448C161.26 46.448 160.604 46.2507 160.145 45.856C159.686 45.4507 159.452 44.864 159.441 44.096H160.769C160.78 44.48 160.897 44.784 161.121 45.008C161.356 45.232 161.681 45.344 162.097 45.344C162.502 45.344 162.822 45.232 163.057 45.008C163.302 44.784 163.43 44.48 163.441 44.096H164.801C164.79 44.864 164.55 45.4507 164.081 45.856C163.622 46.2507 162.966 46.448 162.113 46.448Z" fill="white"/>
<line x1="77.5" y1="2" x2="77.5" y2="58" stroke="#FCEE0A" stroke-width="3"/>
<path d="M13.404 54L10.548 49.226L12.088 48.316L15.504 54H13.404ZM8.728 49.87V48.302H11.682V49.87H8.728ZM12.186 49.31L10.492 49.086L13.362 44.2H15.294L12.186 49.31ZM3.324 54H1.224L4.64 48.316L6.194 49.226L3.324 54ZM9.26 54H7.482V44.2H9.26V54ZM8.014 49.87H5.046V48.302H8.014V49.87ZM4.556 49.31L1.434 44.2H3.366L6.222 49.086L4.556 49.31ZM16.7825 54V44.2H24.4125V45.698H18.5745V48.106H21.4725C22.6485 48.106 23.5398 48.3533 24.1465 48.848C24.7625 49.3333 25.0705 50.0427 25.0705 50.976C25.0705 51.9373 24.7298 52.684 24.0485 53.216C23.3765 53.7387 22.4245 54 21.1925 54H16.7825ZM18.5745 52.6H21.0945C21.7945 52.6 22.3265 52.4647 22.6905 52.194C23.0545 51.9233 23.2365 51.5313 23.2365 51.018C23.2365 50.01 22.5225 49.506 21.0945 49.506H18.5745V52.6ZM27.0774 54V44.2H28.8694V51.158L34.1334 44.2H35.8274V54H34.0354V47.056L28.7714 54H27.0774ZM41.8423 50.836V49.38H45.6923V50.836H41.8423ZM50.8181 54V52.782L54.7101 49.086C55.0368 48.778 55.2795 48.5073 55.4381 48.274C55.5968 48.0407 55.6995 47.826 55.7461 47.63C55.8021 47.4247 55.8301 47.2333 55.8301 47.056C55.8301 46.608 55.6761 46.2627 55.3681 46.02C55.0601 45.768 54.6075 45.642 54.0101 45.642C53.5341 45.642 53.1001 45.726 52.7081 45.894C52.3255 46.062 51.9941 46.3187 51.7141 46.664L50.4401 45.684C50.8228 45.1707 51.3361 44.774 51.9801 44.494C52.6335 44.2047 53.3615 44.06 54.1641 44.06C54.8735 44.06 55.4895 44.1767 56.0121 44.41C56.5441 44.634 56.9501 44.956 57.2301 45.376C57.5195 45.796 57.6641 46.2953 57.6641 46.874C57.6641 47.1913 57.6221 47.5087 57.5381 47.826C57.4541 48.134 57.2955 48.4607 57.0621 48.806C56.8288 49.1513 56.4881 49.5387 56.0401 49.968L52.6941 53.146L52.3161 52.46H58.0421V54H50.8181ZM60.6606 54V44.9L61.4586 45.726H58.5886V44.2H62.4806V54H60.6606Z" fill="white"/>
<path d="M36.6829 4.17195C35.8117 4.81492 33.9761 6.17347 32.6072 7.20016C30.0042 9.13946 24.2589 13.4121 23.6367 13.8788C23.4396 14.024 23.2529 14.1277 23.2426 14.1173C23.2218 14.0966 23.1492 14.1588 23.087 14.2418C23.0144 14.3248 21.9877 15.1233 20.7847 16.0152C19.5921 16.8967 18.3995 17.7885 18.1402 17.9856C16.5639 19.1886 14.6142 20.6093 14.6142 20.5575C14.6142 20.516 14.552 20.5575 14.4898 20.6508C14.4172 20.7442 13.4735 21.4805 12.3846 22.2894C11.306 23.0879 10.3001 23.845 10.1549 23.9487C10.0097 24.0524 7.72817 25.7635 5.0733 27.7443C2.41843 29.7147 0.178384 31.4051 0.0954191 31.4881C-0.0393985 31.6125 -0.0393985 31.6229 0.147272 31.5607C0.261349 31.5192 0.593207 31.3222 0.893955 31.1355C1.1947 30.9488 1.46434 30.7933 1.49545 30.7933C1.52656 30.7933 1.7236 30.6792 1.94138 30.5547C2.1488 30.4199 2.55325 30.1814 2.84363 30.0155C3.4866 29.6629 5.79924 28.3147 6.81556 27.7132C7.24076 27.4643 7.63484 27.2465 7.69706 27.2361C7.76966 27.2258 7.84225 27.1843 7.87336 27.1428C7.91484 27.091 8.71338 26.6243 10.2067 25.7635C10.4349 25.6391 11.0157 25.2968 11.5031 25.0168C14.7076 23.1501 15.6409 22.6316 15.6928 22.6835C15.7239 22.7146 15.755 22.6938 15.755 22.642C15.755 22.5797 15.9521 22.4242 16.2009 22.2894C16.4395 22.1546 17.1758 21.7397 17.8291 21.356C19.5092 20.3708 19.7995 20.2153 19.7995 20.2775C19.7995 20.3086 19.8618 20.2671 19.9447 20.1841C20.0277 20.1012 21.3655 19.3026 22.9315 18.4004C24.487 17.4982 26.416 16.3781 27.2145 15.9115C28.0131 15.4448 29.4649 14.6048 30.4294 14.0448C31.4042 13.4847 32.8146 12.6551 33.5821 12.2092C34.3391 11.7632 35.0236 11.4002 35.0962 11.4002C35.1688 11.4002 35.2517 11.3588 35.2725 11.3173C35.3243 11.1721 37.9896 9.63725 38.1762 9.63725C38.2592 9.63725 39.12 10.0728 40.0844 10.6121C41.6504 11.4728 45.7986 13.7336 47.5927 14.6981C47.9661 14.8951 48.412 15.1337 48.5779 15.2374C48.7542 15.3411 49.3557 15.6626 49.9261 15.9633C50.4965 16.2641 51.015 16.5441 51.0669 16.5855C51.1291 16.627 51.6373 16.907 52.2076 17.2078C52.778 17.5085 53.5973 17.9545 54.0225 18.193C54.4477 18.4315 55.1321 18.8049 55.5262 19.0226C55.9307 19.2404 56.8018 19.7175 57.4759 20.0804C58.15 20.4538 58.7204 20.7338 58.7515 20.7027C58.7826 20.6819 58.4404 20.3397 57.9944 19.9456C57.5485 19.5515 57.1648 19.2093 57.1337 19.1782C57.1026 19.1471 56.9159 18.9915 56.7188 18.8256C56.5218 18.6597 56.0551 18.2552 55.6818 17.9337C55.3084 17.6019 54.2403 16.6685 53.2966 15.8596C52.3528 15.0507 51.4402 14.2625 51.2743 14.107C51.098 13.9618 50.6313 13.5573 50.2372 13.2151C49.8328 12.8729 49.4905 12.5618 49.4594 12.5306C49.4283 12.4995 48.889 12.0225 48.2461 11.4832C47.6135 10.9336 47.1157 10.4565 47.1572 10.4254C47.1883 10.3943 47.1572 10.3632 47.0846 10.3632C47.012 10.3632 46.1408 9.64762 45.1349 8.77649C44.1289 7.91573 42.5526 6.54681 41.64 5.75865C40.717 4.97048 39.6903 4.07861 39.3585 3.78823C38.6222 3.15563 38.4355 3.01044 38.3422 3.00007C38.311 3.00007 37.5644 3.52897 36.6829 4.17195Z" fill="#FFF000"/>
<path d="M40.1569 11.5765C40.0325 11.5972 39.7836 11.7839 39.5969 11.9913C39.2754 12.3647 39.2754 12.3854 39.3169 13.2047C39.3584 13.8788 39.431 14.1691 39.6799 14.6669C40.0117 15.3203 40.4265 15.8907 40.4369 15.6936C40.4369 15.6418 40.3228 15.341 40.1776 15.0506C40.0325 14.7499 39.9184 14.4803 39.9184 14.4284C39.9184 14.3454 40.0843 14.2417 41.2873 13.5884L42.0962 13.1528L42.3658 13.4328L42.6458 13.7025L42.5836 13.381C42.4903 12.9247 42.0755 12.3128 41.6088 11.9498C41.2147 11.6387 40.6132 11.4832 40.1569 11.5765Z" fill="#FFF000"/>
<path d="M36.8078 16.8655C36.1544 17.187 34.3292 18.0788 32.7632 18.8463C31.1973 19.6137 28.8431 20.7648 27.5261 21.4078C26.2194 22.0508 23.6993 23.2849 21.926 24.156C20.163 25.0271 17.6429 26.2612 16.3258 26.9042C13.5984 28.242 6.23526 31.8614 4.10928 32.9192C3.33149 33.3029 2.70925 33.6451 2.73 33.6762C2.76111 33.6969 3.04111 33.6036 3.3626 33.4481C3.68409 33.3029 3.95373 33.1784 3.98484 33.1784C4.00558 33.1784 4.43077 32.9917 4.91819 32.7636C5.40561 32.5354 5.8308 32.3488 5.85154 32.3488C5.87229 32.3488 6.256 32.1828 6.70193 31.9754C7.14787 31.768 7.80122 31.4673 8.16419 31.3013C8.52716 31.1354 8.83827 31.0006 8.85902 31.0006C8.89013 31.0006 9.17013 30.8761 9.50199 30.731C9.83385 30.5754 10.2487 30.3991 10.4146 30.3265C10.705 30.2021 11.5346 29.8287 12.2813 29.4969C13.111 29.1235 14.0754 28.688 14.3451 28.5531C14.511 28.4805 14.6769 28.4391 14.7288 28.4702C14.7806 28.5013 14.8221 28.4805 14.8221 28.4287C14.8221 28.3768 14.9777 28.2731 15.1643 28.1902C15.3406 28.1176 15.8799 27.879 16.357 27.6613C16.834 27.4435 17.2385 27.2672 17.2592 27.2672C17.2903 27.2672 17.5496 27.1531 17.8503 27.0183C18.1511 26.8835 18.8874 26.5516 19.4889 26.282C20.0904 26.0123 20.7645 25.7116 20.9926 25.6079C21.2208 25.5042 21.8948 25.2034 22.4963 24.9338C23.0978 24.6642 23.7719 24.3634 24.0001 24.2597C24.2282 24.156 25.9601 23.3886 27.8372 22.5486C31.5499 20.8996 31.8195 20.7752 32.9499 20.2567C33.3751 20.0596 33.7277 19.9041 33.7484 19.9041C33.7692 19.9041 34.1218 19.7485 34.547 19.5515C35.6981 19.0226 36.0818 18.867 36.0818 18.95C36.0818 18.9914 36.1233 18.9707 36.1648 18.9085C36.2374 18.784 38.0522 17.9336 38.2182 17.9336C38.3219 17.9336 41.8168 19.4063 42.6671 19.8004C42.7812 19.8626 44.1916 20.4537 45.7991 21.1278C47.4169 21.8019 48.7132 22.3826 48.6821 22.4034C48.6614 22.4345 48.7236 22.4552 48.8273 22.4656C48.9414 22.476 49.2317 22.5693 49.4806 22.6834C49.7192 22.7975 51.1192 23.3886 52.5711 24.0004C55.1119 25.0686 55.9104 25.4108 56.3563 25.6079C56.8023 25.8153 58.5238 26.5412 58.5549 26.5412C58.8349 26.5412 57.1445 25.6701 49.5325 21.8848C39.7323 17.0107 38.2182 16.2744 38.0833 16.2744C38.0419 16.2744 37.4611 16.544 36.8078 16.8655Z" fill="#FFF000"/>
<path d="M48.3709 16.544C47.8939 17.0626 47.9043 18.193 48.3917 19.0952C48.6924 19.6448 48.8169 19.6863 48.6406 19.1678C48.5783 18.9811 48.5576 18.7945 48.5991 18.753C48.765 18.5974 50.1962 18.1515 50.3413 18.2137C50.5488 18.2863 50.5384 18.2448 50.2687 17.7159C49.9369 17.0937 49.1384 16.2744 48.848 16.2744C48.7235 16.2744 48.5057 16.3988 48.3709 16.544Z" fill="#FFF000"/>
<path d="M40.468 20.2982C40.105 20.3501 39.6487 20.879 39.5243 21.3664C39.3168 22.1753 39.7317 23.5442 40.4265 24.3635L40.7376 24.7264L40.385 23.8449C40.188 23.3575 40.022 22.9116 40.022 22.8597C40.022 22.7353 41.8473 21.9886 42.3554 21.9056C42.5525 21.8745 42.7184 21.9056 42.7599 21.9679C42.8014 22.0301 42.8843 22.0819 42.9362 22.0819C43.0606 22.0819 42.708 21.5427 42.2621 21.0656C41.7643 20.516 41.028 20.2049 40.468 20.2982Z" fill="#FFF000"/>
<path d="M55.5985 20.5988C55.443 20.6299 55.2978 20.7751 55.2044 21.0136C55.0178 21.4388 55.1526 22.2789 55.4948 22.9011C55.9096 23.6478 56.003 23.5544 55.7333 22.6626C55.557 22.0818 55.64 21.8744 56.0859 21.8744C56.8119 21.864 57.0193 21.6359 56.76 21.1381C56.6356 20.8892 56.0133 20.4744 55.8682 20.5366C55.8474 20.547 55.723 20.5781 55.5985 20.5988Z" fill="#FFF000"/>
<path d="M48.5676 23.8241C48.2254 24.0937 48.1113 24.3945 48.1113 25.0167C48.1113 25.6493 48.3084 26.2923 48.6402 26.759C48.9202 27.1634 48.9825 27.0908 48.7854 26.6138C48.7025 26.4064 48.6299 26.0849 48.6299 25.8878V25.5456L49.4388 25.3589C49.8743 25.2552 50.2892 25.1308 50.3617 25.0789C50.5173 24.9441 50.2684 24.4567 49.8121 23.99C49.4077 23.5856 48.9306 23.5234 48.5676 23.8241Z" fill="#FFF000"/>
<path d="M37.3648 26.1524C37.0533 26.2444 35.3502 26.7597 33.5745 27.3026C31.8091 27.8455 29.6803 28.4804 28.8495 28.7288C28.0188 28.9773 26.4611 29.4558 25.3707 29.787C23.2523 30.4403 20.1057 31.3973 18.4131 31.9034C17.8419 32.0782 16.4919 32.4923 15.4016 32.8236C14.3216 33.1548 12.9612 33.5689 12.39 33.7437C11.8189 33.9094 10.2612 34.3879 8.92162 34.7927C7.58201 35.2068 6.47087 35.5381 6.4501 35.5381C6.43971 35.5381 6.41895 35.5749 6.41895 35.6301C6.41895 35.7773 6.7201 35.7405 7.56124 35.5013C7.98701 35.3816 8.62046 35.216 8.96315 35.124C9.30584 35.0412 9.70046 34.9308 9.84584 34.894C9.99122 34.848 10.5935 34.6915 11.1958 34.5259C11.7981 34.3695 12.6185 34.1578 13.0131 34.0474C13.4181 33.937 13.8854 33.8266 14.0516 33.7806C14.3423 33.7161 15.7546 33.3481 17.7381 32.8144C18.2262 32.6764 18.7661 32.5383 18.9323 32.4923C19.1088 32.4555 19.3996 32.3727 19.5969 32.3175C19.7838 32.2715 19.9811 32.2531 20.0331 32.2807C20.085 32.3083 20.1265 32.2899 20.1265 32.2531C20.1265 32.2071 20.3446 32.1151 20.625 32.0506C20.895 31.977 21.3 31.8758 21.5284 31.8114C21.7569 31.747 22.2242 31.6274 22.5669 31.5353C23.3769 31.3237 25.5057 30.7624 26.9284 30.3759C27.1049 30.3299 27.728 30.1643 28.3303 30.0079C28.9326 29.8514 29.5349 29.695 29.6803 29.649C29.8257 29.6122 30.2203 29.5018 30.563 29.419C30.9057 29.3361 31.3003 29.2257 31.4457 29.1889C31.591 29.1429 32.131 28.9957 32.6399 28.8669C33.1591 28.7288 34.1872 28.462 34.9245 28.2595C35.6722 28.0571 36.4198 27.8639 36.586 27.8179C36.7625 27.7719 37.2298 27.643 37.6452 27.5326C38.3514 27.3486 38.4241 27.3486 39.0471 27.4774C39.4106 27.551 40.314 27.7443 41.0513 27.9007C41.799 28.0571 42.5675 28.2227 42.7648 28.2688C43.2425 28.3792 44.2394 28.5816 47.8532 29.3177C48.5074 29.4558 49.3278 29.6214 49.6705 29.695C50.5739 29.8882 52.3497 30.2471 53.2532 30.4311C53.6789 30.514 54.167 30.6244 54.3331 30.6704C54.4993 30.7164 54.7485 30.7532 54.8835 30.7532C55.0185 30.7532 55.112 30.7808 55.0912 30.8176C55.0601 30.8636 55.1743 30.9004 55.3404 30.9096C55.6312 30.928 55.9739 30.9924 57.8639 31.4065C58.5804 31.5538 58.892 31.5722 58.7466 31.4525C58.705 31.4249 57.3758 31.0477 56.057 30.7072C55.1951 30.4772 52.1732 29.6674 51.2801 29.419C50.792 29.2809 50.1897 29.1153 49.9301 29.0509C49.6705 28.9865 49.0682 28.8209 48.5801 28.6828C48.092 28.5448 47.5624 28.3976 47.3859 28.3608C46.8251 28.2227 46.0567 28.0111 45.1532 27.7627C43.7825 27.3854 40.2621 26.4376 39.4937 26.2444C39.3275 26.1984 39.016 26.1248 38.8187 26.0696C38.3306 25.9315 38.0398 25.9499 37.3648 26.1524Z" fill="#FFF000"/>
<path d="M55.6608 27.0286C55.246 27.5368 55.163 28.1798 55.4223 28.9368C55.5986 29.445 56.0964 30.1087 56.0964 29.8287C56.0964 29.7353 56.0549 29.642 56.003 29.6005C55.9408 29.5694 55.8682 29.3309 55.8267 29.082C55.7438 28.5116 55.889 28.3042 56.366 28.3042C56.6771 28.3042 57.0297 28.0864 57.0297 27.8997C57.0297 27.7857 56.5319 27.1323 56.3349 26.9768C56.0964 26.8005 55.8475 26.8212 55.6608 27.0286Z" fill="#FFF000"/>
<path d="M40.5404 29.4761C39.8871 29.8183 39.5967 30.368 39.5967 31.2599C39.5967 31.7991 39.6485 32.0376 39.8767 32.4525C40.3434 33.3132 40.6649 33.448 40.3848 32.6599C40.1463 31.9754 40.1671 31.8925 40.7271 31.7369C40.9967 31.6539 41.5878 31.4776 42.0338 31.3324C42.8219 31.0939 42.8634 31.0836 42.9982 31.2702C43.1227 31.4465 43.1331 31.4362 43.1331 31.2287C43.1331 30.7206 42.5627 29.9324 41.8886 29.5176C41.4012 29.2272 41.0382 29.2168 40.5404 29.4761Z" fill="#FFF000"/>
<path d="M48.8783 31.2599C48.2146 31.7784 48.0071 32.9399 48.4012 33.8318C48.6086 34.3088 48.8057 34.5059 48.6812 34.1222C48.5983 33.8629 48.7849 33.0644 48.9612 32.9606C49.0338 32.9088 49.3449 32.8673 49.6457 32.8673C50.4339 32.8673 50.5894 32.7636 50.4961 32.2762C50.4027 31.7265 50.2264 31.4362 49.8427 31.208C49.4072 30.9384 49.2724 30.9488 48.8783 31.2599Z" fill="#FFF000"/>
<path d="M55.713 33.2406C55.4537 33.3547 55.1426 34.0081 55.1426 34.4644C55.1426 34.8377 55.4122 35.6674 55.5263 35.6674C55.547 35.6674 55.5574 35.4288 55.5574 35.1385C55.5678 34.4436 55.7856 34.1844 56.3041 34.2673C56.9678 34.371 57.0819 34.0599 56.6048 33.4481C56.4078 33.1888 56.0448 33.1058 55.713 33.2406Z" fill="#FFF000"/>
<path d="M25.5342 36.9844C25.6275 37.0052 25.7934 37.0052 25.8971 36.9844C25.9905 36.9533 25.9075 36.9326 25.7105 36.9326C25.5134 36.9326 25.4305 36.9533 25.5342 36.9844Z" fill="#FFF000"/>
</svg>
