<svg width="63" height="54" viewBox="0 0 63 54" fill="none" xmlns="http://www.w3.org/2000/svg">
<path d="M13.502 51L10.436 46.17L11.612 45.47L15.14 51H13.502ZM8.476 46.688V45.456H11.346V46.688H8.476ZM11.696 46.254L10.394 46.058L13.404 41.2H14.902L11.696 46.254ZM2.904 51H1.266L4.78 45.47L5.97 46.17L2.904 51ZM8.896 51H7.524V41.2H8.896V51ZM7.944 46.688H5.06V45.456H7.944V46.688ZM4.724 46.254L1.504 41.2H3.002L5.998 46.058L4.724 46.254ZM16.608 51V41.2H24V42.39H17.994V45.19H21.046C22.2127 45.19 23.0994 45.4327 23.706 45.918C24.3127 46.4033 24.616 47.108 24.616 48.032C24.616 48.984 24.2847 49.7167 23.622 50.23C22.9687 50.7433 22.0307 51 20.808 51H16.608ZM17.994 49.894H20.752C21.564 49.894 22.1754 49.74 22.586 49.432C23.006 49.124 23.216 48.6667 23.216 48.06C23.216 46.884 22.3947 46.296 20.752 46.296H17.994V49.894ZM26.8483 51V41.2H28.2343V48.76L34.0303 41.2H35.3183V51H33.9463V43.454L28.1363 51H26.8483ZM41.4054 47.738V46.576H45.1714V47.738H41.4054ZM50.2446 51V50.048L54.2346 46.198C54.5892 45.862 54.8506 45.568 55.0186 45.316C55.1959 45.0547 55.3126 44.8167 55.3686 44.602C55.4339 44.378 55.4666 44.1633 55.4666 43.958C55.4666 43.454 55.2892 43.0573 54.9346 42.768C54.5799 42.4787 54.0619 42.334 53.3806 42.334C52.8579 42.334 52.3866 42.4227 51.9666 42.6C51.5466 42.768 51.1826 43.034 50.8746 43.398L49.9226 42.572C50.2959 42.096 50.7952 41.732 51.4206 41.48C52.0552 41.2187 52.7506 41.088 53.5066 41.088C54.1879 41.088 54.7806 41.2 55.2846 41.424C55.7886 41.6387 56.1759 41.9513 56.4466 42.362C56.7266 42.7727 56.8666 43.258 56.8666 43.818C56.8666 44.1353 56.8246 44.448 56.7406 44.756C56.6566 45.064 56.4979 45.3907 56.2646 45.736C56.0312 46.0813 55.6952 46.4687 55.2566 46.898L51.7006 50.328L51.3646 49.782H57.2866V51H50.2446ZM60.0896 51V41.76L60.6916 42.418H57.8776V41.2H61.4756V51H60.0896Z" fill="white"/>
<path d="M36.6829 1.17189C35.8117 1.81486 33.9761 3.17341 32.6072 4.2001C30.0042 6.1394 24.2589 10.4121 23.6367 10.8788C23.4396 11.0239 23.2529 11.1277 23.2426 11.1173C23.2218 11.0965 23.1492 11.1588 23.087 11.2417C23.0144 11.3247 21.9877 12.1232 20.7847 13.0151C19.5921 13.8966 18.3995 14.7885 18.1402 14.9855C16.5639 16.1885 14.6142 17.6093 14.6142 17.5574C14.6142 17.5159 14.552 17.5574 14.4898 17.6508C14.4172 17.7441 13.4735 18.4804 12.3846 19.2893C11.306 20.0878 10.3001 20.8449 10.1549 20.9486C10.0097 21.0523 7.72817 22.7635 5.0733 24.7442C2.41843 26.7147 0.178384 28.4051 0.0954191 28.488C-0.0393985 28.6125 -0.0393985 28.6228 0.147272 28.5606C0.261349 28.5191 0.593207 28.3221 0.893955 28.1354C1.1947 27.9488 1.46434 27.7932 1.49545 27.7932C1.52656 27.7932 1.7236 27.6791 1.94138 27.5547C2.1488 27.4199 2.55325 27.1813 2.84363 27.0154C3.4866 26.6628 5.79924 25.3146 6.81556 24.7131C7.24076 24.4642 7.63484 24.2465 7.69706 24.2361C7.76966 24.2257 7.84225 24.1842 7.87336 24.1427C7.91484 24.0909 8.71338 23.6242 10.2067 22.7635C10.4349 22.639 11.0157 22.2968 11.5031 22.0168C14.7076 20.1501 15.6409 19.6315 15.6928 19.6834C15.7239 19.7145 15.755 19.6938 15.755 19.6419C15.755 19.5797 15.9521 19.4241 16.2009 19.2893C16.4395 19.1545 17.1758 18.7397 17.8291 18.356C19.5092 17.3708 19.7995 17.2152 19.7995 17.2774C19.7995 17.3085 19.8618 17.267 19.9447 17.1841C20.0277 17.1011 21.3655 16.3026 22.9315 15.4003C24.487 14.4981 26.416 13.3781 27.2145 12.9114C28.0131 12.4447 29.4649 11.6047 30.4294 11.0447C31.4042 10.4847 32.8146 9.65503 33.5821 9.2091C34.3391 8.76316 35.0236 8.40019 35.0962 8.40019C35.1688 8.40019 35.2517 8.35871 35.2725 8.31722C35.3243 8.17204 37.9896 6.63719 38.1762 6.63719C38.2592 6.63719 39.12 7.07275 40.0844 7.61202C41.6504 8.47278 45.7986 10.7336 47.5927 11.698C47.9661 11.8951 48.412 12.1336 48.5779 12.2373C48.7542 12.341 49.3557 12.6625 49.9261 12.9632C50.4965 13.264 51.015 13.544 51.0669 13.5855C51.1291 13.627 51.6373 13.907 52.2076 14.2077C52.778 14.5085 53.5973 14.9544 54.0225 15.1929C54.4477 15.4315 55.1321 15.8048 55.5262 16.0226C55.9307 16.2404 56.8018 16.7174 57.4759 17.0804C58.15 17.4537 58.7204 17.7337 58.7515 17.7026C58.7826 17.6819 58.4404 17.3396 57.9944 16.9456C57.5485 16.5515 57.1648 16.2092 57.1337 16.1781C57.1026 16.147 56.9159 15.9915 56.7188 15.8255C56.5218 15.6596 56.0551 15.2552 55.6818 14.9337C55.3084 14.6018 54.2403 13.6684 53.2966 12.8595C52.3528 12.0506 51.4402 11.2625 51.2743 11.1069C51.098 10.9617 50.6313 10.5573 50.2372 10.215C49.8328 9.87281 49.4905 9.5617 49.4594 9.53058C49.4283 9.49947 48.889 9.02242 48.2461 8.48315C47.6135 7.93351 47.1157 7.45646 47.1572 7.42535C47.1883 7.39424 47.1572 7.36313 47.0846 7.36313C47.012 7.36313 46.1408 6.64756 45.1349 5.77643C44.1289 4.91567 42.5526 3.54675 41.64 2.75859C40.717 1.97042 39.6903 1.07855 39.3585 0.788174C38.6222 0.155567 38.4355 0.0103798 38.3422 9.53674e-06C38.311 9.53674e-06 37.5644 0.52891 36.6829 1.17189Z" fill="#FCEE0A"/>
<path d="M40.1569 8.5765C40.0325 8.59724 39.7836 8.78391 39.5969 8.99132C39.2754 9.36466 39.2754 9.3854 39.3169 10.2047C39.3584 10.8788 39.431 11.1691 39.6799 11.6669C40.0117 12.3203 40.4265 12.8907 40.4369 12.6936C40.4369 12.6418 40.3228 12.341 40.1776 12.0506C40.0325 11.7499 39.9184 11.4803 39.9184 11.4284C39.9184 11.3454 40.0843 11.2417 41.2873 10.5884L42.0962 10.1528L42.3658 10.4328L42.6458 10.7025L42.5836 10.381C42.4903 9.92467 42.0755 9.31281 41.6088 8.94984C41.2147 8.63872 40.6132 8.48316 40.1569 8.5765Z" fill="#FCEE0A"/>
<path d="M36.8078 13.8655C36.1544 14.187 34.3292 15.0789 32.7632 15.8463C31.1973 16.6137 28.8431 17.7649 27.5261 18.4078C26.2194 19.0508 23.6993 20.2849 21.926 21.156C20.163 22.0272 17.6429 23.2613 16.3258 23.9042C13.5984 25.242 6.23526 28.8614 4.10928 29.9192C3.33149 30.3029 2.70925 30.6451 2.73 30.6762C2.76111 30.697 3.04111 30.6036 3.3626 30.4481C3.68409 30.3029 3.95373 30.1785 3.98484 30.1785C4.00558 30.1785 4.43077 29.9918 4.91819 29.7636C5.40561 29.5355 5.8308 29.3488 5.85154 29.3488C5.87229 29.3488 6.256 29.1829 6.70193 28.9755C7.14787 28.768 7.80122 28.4673 8.16419 28.3014C8.52716 28.1354 8.83827 28.0006 8.85902 28.0006C8.89013 28.0006 9.17013 27.8762 9.50199 27.731C9.83385 27.5754 10.2487 27.3991 10.4146 27.3265C10.705 27.2021 11.5346 26.8287 12.2813 26.4969C13.111 26.1235 14.0754 25.688 14.3451 25.5532C14.511 25.4806 14.6769 25.4391 14.7288 25.4702C14.7806 25.5013 14.8221 25.4806 14.8221 25.4287C14.8221 25.3769 14.9777 25.2732 15.1643 25.1902C15.3406 25.1176 15.8799 24.8791 16.357 24.6613C16.834 24.4435 17.2385 24.2672 17.2592 24.2672C17.2903 24.2672 17.5496 24.1531 17.8503 24.0183C18.1511 23.8835 18.8874 23.5516 19.4889 23.282C20.0904 23.0124 20.7645 22.7116 20.9926 22.6079C21.2208 22.5042 21.8948 22.2035 22.4963 21.9338C23.0978 21.6642 23.7719 21.3634 24.0001 21.2597C24.2282 21.156 25.9601 20.3886 27.8372 19.5486C31.5499 17.8997 31.8195 17.7752 32.9499 17.2567C33.3751 17.0597 33.7277 16.9041 33.7484 16.9041C33.7692 16.9041 34.1218 16.7485 34.547 16.5515C35.6981 16.0226 36.0818 15.867 36.0818 15.95C36.0818 15.9915 36.1233 15.9707 36.1648 15.9085C36.2374 15.7841 38.0522 14.9337 38.2182 14.9337C38.3219 14.9337 41.8168 16.4063 42.6671 16.8004C42.7812 16.8626 44.1916 17.4537 45.7991 18.1278C47.4169 18.8019 48.7132 19.3827 48.6821 19.4034C48.6614 19.4345 48.7236 19.4553 48.8273 19.4656C48.9414 19.476 49.2317 19.5693 49.4806 19.6834C49.7192 19.7975 51.1192 20.3886 52.5711 21.0005C55.1119 22.0686 55.9104 22.4109 56.3563 22.6079C56.8023 22.8153 58.5238 23.5413 58.5549 23.5413C58.8349 23.5413 57.1445 22.6701 49.5325 18.8849C39.7323 14.0107 38.2182 13.2744 38.0833 13.2744C38.0419 13.2744 37.4611 13.544 36.8078 13.8655Z" fill="#FCEE0A"/>
<path d="M48.3709 13.544C47.8939 14.0625 47.9043 15.1929 48.3917 16.0952C48.6924 16.6448 48.8169 16.6863 48.6406 16.1678C48.5783 15.9811 48.5576 15.7944 48.5991 15.7529C48.765 15.5974 50.1962 15.1514 50.3413 15.2137C50.5488 15.2863 50.5384 15.2448 50.2687 14.7159C49.9369 14.0936 49.1384 13.2744 48.848 13.2744C48.7235 13.2744 48.5057 13.3988 48.3709 13.544Z" fill="#FCEE0A"/>
<path d="M40.468 17.2982C40.105 17.35 39.6487 17.8789 39.5243 18.3663C39.3168 19.1752 39.7317 20.5442 40.4265 21.3634L40.7376 21.7264L40.385 20.8449C40.188 20.3575 40.022 19.9116 40.022 19.8597C40.022 19.7353 41.8473 18.9886 42.3554 18.9056C42.5525 18.8745 42.7184 18.9056 42.7599 18.9678C42.8014 19.0301 42.8843 19.0819 42.9362 19.0819C43.0606 19.0819 42.708 18.5426 42.2621 18.0656C41.7643 17.5159 41.028 17.2048 40.468 17.2982Z" fill="#FCEE0A"/>
<path d="M55.5985 17.5989C55.443 17.63 55.2978 17.7752 55.2044 18.0137C55.0178 18.4389 55.1526 19.2789 55.4948 19.9012C55.9096 20.6478 56.003 20.5545 55.7333 19.6626C55.557 19.0819 55.64 18.8745 56.0859 18.8745C56.8119 18.8641 57.0193 18.6359 56.76 18.1382C56.6356 17.8893 56.0133 17.4744 55.8682 17.5367C55.8474 17.547 55.723 17.5781 55.5985 17.5989Z" fill="#FCEE0A"/>
<path d="M48.5676 20.8242C48.2254 21.0938 48.1113 21.3945 48.1113 22.0168C48.1113 22.6494 48.3084 23.2924 48.6402 23.759C48.9202 24.1635 48.9825 24.0909 48.7854 23.6138C48.7025 23.4064 48.6299 23.0849 48.6299 22.8879V22.5457L49.4388 22.359C49.8743 22.2553 50.2892 22.1309 50.3617 22.079C50.5173 21.9442 50.2684 21.4568 49.8121 20.9901C49.4077 20.5856 48.9306 20.5234 48.5676 20.8242Z" fill="#FCEE0A"/>
<path d="M37.3648 23.1524C37.0533 23.2444 35.3502 23.7597 33.5745 24.3026C31.8091 24.8455 29.6803 25.4804 28.8495 25.7288C28.0188 25.9773 26.4611 26.4558 25.3707 26.787C23.2523 27.4403 20.1057 28.3973 18.4131 28.9034C17.8419 29.0782 16.4919 29.4923 15.4016 29.8236C14.3216 30.1548 12.9612 30.5689 12.39 30.7437C11.8189 30.9094 10.2612 31.3879 8.92162 31.7927C7.58201 32.2068 6.47087 32.5381 6.4501 32.5381C6.43971 32.5381 6.41895 32.5749 6.41895 32.6301C6.41895 32.7773 6.7201 32.7405 7.56124 32.5013C7.98701 32.3816 8.62046 32.216 8.96315 32.124C9.30584 32.0412 9.70046 31.9308 9.84584 31.894C9.99122 31.848 10.5935 31.6915 11.1958 31.5259C11.7981 31.3695 12.6185 31.1578 13.0131 31.0474C13.4181 30.937 13.8854 30.8266 14.0516 30.7806C14.3423 30.7161 15.7546 30.3481 17.7381 29.8144C18.2262 29.6764 18.7661 29.5383 18.9323 29.4923C19.1088 29.4555 19.3996 29.3727 19.5969 29.3175C19.7838 29.2715 19.9811 29.2531 20.0331 29.2807C20.085 29.3083 20.1265 29.2899 20.1265 29.2531C20.1265 29.2071 20.3446 29.1151 20.625 29.0506C20.895 28.977 21.3 28.8758 21.5284 28.8114C21.7569 28.747 22.2242 28.6274 22.5669 28.5353C23.3769 28.3237 25.5057 27.7624 26.9284 27.3759C27.1049 27.3299 27.728 27.1643 28.3303 27.0079C28.9326 26.8514 29.5349 26.695 29.6803 26.649C29.8257 26.6122 30.2203 26.5018 30.563 26.419C30.9057 26.3361 31.3003 26.2257 31.4457 26.1889C31.591 26.1429 32.131 25.9957 32.6399 25.8669C33.1591 25.7288 34.1872 25.462 34.9245 25.2595C35.6722 25.0571 36.4198 24.8639 36.586 24.8179C36.7625 24.7719 37.2298 24.643 37.6452 24.5326C38.3514 24.3486 38.4241 24.3486 39.0471 24.4774C39.4106 24.551 40.314 24.7443 41.0513 24.9007C41.799 25.0571 42.5675 25.2227 42.7648 25.2688C43.2425 25.3792 44.2394 25.5816 47.8532 26.3177C48.5074 26.4558 49.3278 26.6214 49.6705 26.695C50.5739 26.8882 52.3497 27.2471 53.2532 27.4311C53.6789 27.514 54.167 27.6244 54.3331 27.6704C54.4993 27.7164 54.7485 27.7532 54.8835 27.7532C55.0185 27.7532 55.112 27.7808 55.0912 27.8176C55.0601 27.8636 55.1743 27.9004 55.3404 27.9096C55.6312 27.928 55.9739 27.9924 57.8639 28.4065C58.5804 28.5538 58.892 28.5722 58.7466 28.4525C58.705 28.4249 57.3758 28.0477 56.057 27.7072C55.1951 27.4772 52.1732 26.6674 51.2801 26.419C50.792 26.2809 50.1897 26.1153 49.9301 26.0509C49.6705 25.9865 49.0682 25.8209 48.5801 25.6828C48.092 25.5448 47.5624 25.3976 47.3859 25.3608C46.8251 25.2227 46.0567 25.0111 45.1532 24.7627C43.7825 24.3854 40.2621 23.4376 39.4937 23.2444C39.3275 23.1984 39.016 23.1248 38.8187 23.0696C38.3306 22.9315 38.0398 22.9499 37.3648 23.1524Z" fill="#FCEE0A"/>
<path d="M55.6608 24.0287C55.246 24.5368 55.163 25.1798 55.4223 25.9369C55.5986 26.445 56.0964 27.1087 56.0964 26.8287C56.0964 26.7354 56.0549 26.6421 56.003 26.6006C55.9408 26.5695 55.8682 26.3309 55.8267 26.0821C55.7438 25.5117 55.889 25.3043 56.366 25.3043C56.6771 25.3043 57.0297 25.0865 57.0297 24.8998C57.0297 24.7857 56.5319 24.1324 56.3349 23.9768C56.0964 23.8005 55.8475 23.8213 55.6608 24.0287Z" fill="#FCEE0A"/>
<path d="M40.5404 26.4761C39.8871 26.8184 39.5967 27.368 39.5967 28.2599C39.5967 28.7992 39.6485 29.0377 39.8767 29.4525C40.3434 30.3133 40.6649 30.4481 40.3848 29.6599C40.1463 28.9755 40.1671 28.8925 40.7271 28.7369C40.9967 28.654 41.5878 28.4777 42.0338 28.3325C42.8219 28.094 42.8634 28.0836 42.9982 28.2703C43.1227 28.4466 43.1331 28.4362 43.1331 28.2288C43.1331 27.7206 42.5627 26.9324 41.8886 26.5176C41.4012 26.2272 41.0382 26.2169 40.5404 26.4761Z" fill="#FCEE0A"/>
<path d="M48.8783 28.2599C48.2146 28.7784 48.0071 29.9399 48.4012 30.8318C48.6086 31.3088 48.8057 31.5059 48.6812 31.1222C48.5983 30.8629 48.7849 30.0644 48.9612 29.9606C49.0338 29.9088 49.3449 29.8673 49.6457 29.8673C50.4339 29.8673 50.5894 29.7636 50.4961 29.2762C50.4027 28.7265 50.2264 28.4362 49.8427 28.208C49.4072 27.9384 49.2724 27.9488 48.8783 28.2599Z" fill="#FCEE0A"/>
<path d="M55.713 30.2407C55.4537 30.3547 55.1426 31.0081 55.1426 31.4644C55.1426 31.8377 55.4122 32.6674 55.5263 32.6674C55.547 32.6674 55.5574 32.4289 55.5574 32.1385C55.5678 31.4437 55.7856 31.1844 56.3041 31.2674C56.9678 31.3711 57.0819 31.0599 56.6048 30.4481C56.4078 30.1888 56.0448 30.1059 55.713 30.2407Z" fill="#FCEE0A"/>
<path d="M25.5342 33.9844C25.6275 34.0052 25.7934 34.0052 25.8971 33.9844C25.9905 33.9533 25.9075 33.9326 25.7105 33.9326C25.5134 33.9326 25.4305 33.9533 25.5342 33.9844Z" fill="#FCEE0A"/>
</svg>
