<svg width="270" height="64" viewBox="0 0 270 64" fill="none" xmlns="http://www.w3.org/2000/svg">
<path d="M102.584 20V8.8H112.488V20H110.44V10.048L110.92 10.56H104.152L104.632 10.048V20H102.584ZM120.158 20.112C119.465 20.112 118.83 19.952 118.254 19.632C117.689 19.312 117.235 18.832 116.894 18.192C116.563 17.5413 116.398 16.72 116.398 15.728C116.398 14.7253 116.558 13.904 116.878 13.264C117.209 12.624 117.657 12.1493 118.222 11.84C118.787 11.52 119.433 11.36 120.158 11.36C121.001 11.36 121.742 11.5413 122.382 11.904C123.033 12.2667 123.545 12.7733 123.918 13.424C124.302 14.0747 124.494 14.8427 124.494 15.728C124.494 16.6133 124.302 17.3867 123.918 18.048C123.545 18.6987 123.033 19.2053 122.382 19.568C121.742 19.9307 121.001 20.112 120.158 20.112ZM115.422 23.104V11.456H117.326V13.472L117.262 15.744L117.422 18.016V23.104H115.422ZM119.934 18.4C120.414 18.4 120.841 18.2933 121.214 18.08C121.598 17.8667 121.902 17.5573 122.126 17.152C122.35 16.7467 122.462 16.272 122.462 15.728C122.462 15.1733 122.35 14.6987 122.126 14.304C121.902 13.8987 121.598 13.5893 121.214 13.376C120.841 13.1627 120.414 13.056 119.934 13.056C119.454 13.056 119.022 13.1627 118.638 13.376C118.254 13.5893 117.95 13.8987 117.726 14.304C117.502 14.6987 117.39 15.1733 117.39 15.728C117.39 16.272 117.502 16.7467 117.726 17.152C117.95 17.5573 118.254 17.8667 118.638 18.08C119.022 18.2933 119.454 18.4 119.934 18.4ZM130.293 20.112C129.418 20.112 128.639 19.9253 127.957 19.552C127.274 19.168 126.735 18.6453 126.341 17.984C125.946 17.3227 125.749 16.5707 125.749 15.728C125.749 14.8747 125.946 14.1227 126.341 13.472C126.735 12.8107 127.274 12.2933 127.957 11.92C128.639 11.5467 129.418 11.36 130.293 11.36C131.178 11.36 131.962 11.5467 132.645 11.92C133.338 12.2933 133.877 12.8053 134.261 13.456C134.655 14.1067 134.853 14.864 134.853 15.728C134.853 16.5707 134.655 17.3227 134.261 17.984C133.877 18.6453 133.338 19.168 132.645 19.552C131.962 19.9253 131.178 20.112 130.293 20.112ZM130.293 18.4C130.783 18.4 131.221 18.2933 131.605 18.08C131.989 17.8667 132.287 17.5573 132.501 17.152C132.725 16.7467 132.837 16.272 132.837 15.728C132.837 15.1733 132.725 14.6987 132.501 14.304C132.287 13.8987 131.989 13.5893 131.605 13.376C131.221 13.1627 130.789 13.056 130.309 13.056C129.818 13.056 129.381 13.1627 128.997 13.376C128.623 13.5893 128.325 13.8987 128.101 14.304C127.877 14.6987 127.765 15.1733 127.765 15.728C127.765 16.272 127.877 16.7467 128.101 17.152C128.325 17.5573 128.623 17.8667 128.997 18.08C129.381 18.2933 129.813 18.4 130.293 18.4ZM142.591 19.072V13.152H139.311L139.263 14.528C139.241 15.0187 139.209 15.4933 139.167 15.952C139.124 16.4 139.055 16.816 138.959 17.2C138.863 17.5733 138.724 17.8827 138.543 18.128C138.361 18.3733 138.121 18.5333 137.823 18.608L135.839 18.304C136.159 18.304 136.415 18.2027 136.607 18C136.809 17.7867 136.964 17.4987 137.071 17.136C137.188 16.7627 137.273 16.3413 137.327 15.872C137.38 15.392 137.417 14.896 137.439 14.384L137.551 11.456H144.591V19.072H142.591ZM135.535 21.904V18.304H145.855V21.904H143.983V20H137.391V21.904H135.535ZM152.825 20V18.272L152.713 17.904V14.88C152.713 14.2933 152.537 13.84 152.185 13.52C151.833 13.1893 151.3 13.024 150.585 13.024C150.105 13.024 149.63 13.0987 149.161 13.248C148.702 13.3973 148.313 13.6053 147.993 13.872L147.209 12.416C147.668 12.064 148.212 11.8027 148.841 11.632C149.481 11.4507 150.142 11.36 150.825 11.36C152.062 11.36 153.017 11.6587 153.689 12.256C154.372 12.8427 154.713 13.7547 154.713 14.992V20H152.825ZM150.137 20.112C149.497 20.112 148.937 20.0053 148.457 19.792C147.977 19.568 147.604 19.264 147.337 18.88C147.081 18.4853 146.953 18.0427 146.953 17.552C146.953 17.072 147.065 16.64 147.289 16.256C147.524 15.872 147.902 15.568 148.425 15.344C148.948 15.12 149.641 15.008 150.505 15.008H152.985V16.336H150.649C149.966 16.336 149.508 16.448 149.273 16.672C149.038 16.8853 148.921 17.152 148.921 17.472C148.921 17.8347 149.065 18.1227 149.353 18.336C149.641 18.5493 150.041 18.656 150.553 18.656C151.044 18.656 151.481 18.544 151.865 18.32C152.26 18.096 152.542 17.7653 152.713 17.328L153.049 18.528C152.857 19.0293 152.51 19.4187 152.009 19.696C151.518 19.9733 150.894 20.112 150.137 20.112ZM167.38 20L164.884 15.904L166.516 14.896L169.764 20H167.38ZM163.268 16.576V14.912H166.132V16.576H163.268ZM166.708 15.968L164.82 15.744L167.412 11.456H169.54L166.708 15.968ZM158.356 20H155.988L159.22 14.896L160.852 15.904L158.356 20ZM163.86 20H161.876V11.456H163.86V20ZM162.468 16.576H159.62V14.912H162.468V16.576ZM159.028 15.968L156.196 11.456H158.324L160.9 15.744L159.028 15.968ZM176.278 20V18.272L176.166 17.904V14.88C176.166 14.2933 175.99 13.84 175.638 13.52C175.286 13.1893 174.753 13.024 174.038 13.024C173.558 13.024 173.083 13.0987 172.614 13.248C172.155 13.3973 171.766 13.6053 171.446 13.872L170.662 12.416C171.121 12.064 171.665 11.8027 172.294 11.632C172.934 11.4507 173.595 11.36 174.278 11.36C175.515 11.36 176.47 11.6587 177.142 12.256C177.825 12.8427 178.166 13.7547 178.166 14.992V20H176.278ZM173.59 20.112C172.95 20.112 172.39 20.0053 171.91 19.792C171.43 19.568 171.057 19.264 170.79 18.88C170.534 18.4853 170.406 18.0427 170.406 17.552C170.406 17.072 170.518 16.64 170.742 16.256C170.977 15.872 171.355 15.568 171.878 15.344C172.401 15.12 173.094 15.008 173.958 15.008H176.438V16.336H174.102C173.419 16.336 172.961 16.448 172.726 16.672C172.491 16.8853 172.374 17.152 172.374 17.472C172.374 17.8347 172.518 18.1227 172.806 18.336C173.094 18.5493 173.494 18.656 174.006 18.656C174.497 18.656 174.934 18.544 175.318 18.32C175.713 18.096 175.995 17.7653 176.166 17.328L176.502 18.528C176.31 19.0293 175.963 19.4187 175.462 19.696C174.971 19.9733 174.347 20.112 173.59 20.112ZM185.063 20V11.456H187.063V17.088L191.783 11.456H193.607V20H191.607V14.368L186.903 20H185.063ZM200.719 20V11.456H208.911V20H206.927V12.688L207.391 13.152H202.255L202.719 12.688V20H200.719ZM215.418 20.112C214.543 20.112 213.764 19.9253 213.082 19.552C212.399 19.168 211.86 18.6453 211.466 17.984C211.071 17.3227 210.874 16.5707 210.874 15.728C210.874 14.8747 211.071 14.1227 211.466 13.472C211.86 12.8107 212.399 12.2933 213.082 11.92C213.764 11.5467 214.543 11.36 215.418 11.36C216.303 11.36 217.087 11.5467 217.77 11.92C218.463 12.2933 219.002 12.8053 219.386 13.456C219.78 14.1067 219.978 14.864 219.978 15.728C219.978 16.5707 219.78 17.3227 219.386 17.984C219.002 18.6453 218.463 19.168 217.77 19.552C217.087 19.9253 216.303 20.112 215.418 20.112ZM215.418 18.4C215.908 18.4 216.346 18.2933 216.73 18.08C217.114 17.8667 217.412 17.5573 217.626 17.152C217.85 16.7467 217.962 16.272 217.962 15.728C217.962 15.1733 217.85 14.6987 217.626 14.304C217.412 13.8987 217.114 13.5893 216.73 13.376C216.346 13.1627 215.914 13.056 215.434 13.056C214.943 13.056 214.506 13.1627 214.122 13.376C213.748 13.5893 213.45 13.8987 213.226 14.304C213.002 14.6987 212.89 15.1733 212.89 15.728C212.89 16.272 213.002 16.7467 213.226 17.152C213.45 17.5573 213.748 17.8667 214.122 18.08C214.506 18.2933 214.938 18.4 215.418 18.4ZM228.081 20L224.993 15.904L226.625 14.896L230.433 20H228.081ZM221.953 20V11.456H223.953V20H221.953ZM223.361 16.576V14.912H226.257V16.576H223.361ZM226.817 15.968L224.945 15.744L228.081 11.456H230.225L226.817 15.968ZM232.128 23.216C231.712 23.216 231.296 23.1467 230.88 23.008C230.464 22.8693 230.117 22.6773 229.84 22.432L230.64 20.96C230.842 21.1413 231.072 21.2853 231.328 21.392C231.584 21.4987 231.845 21.552 232.112 21.552C232.474 21.552 232.768 21.4613 232.992 21.28C233.216 21.0987 233.424 20.7947 233.616 20.368L234.112 19.248L234.272 19.008L237.504 11.456H239.424L235.424 20.688C235.157 21.328 234.858 21.8347 234.528 22.208C234.208 22.5813 233.845 22.8427 233.44 22.992C233.045 23.1413 232.608 23.216 232.128 23.216ZM233.888 20.304L230.032 11.456H232.112L235.248 18.832L233.888 20.304ZM240.813 20V11.456H249.005V20H247.021V12.688L247.485 13.152H242.349L242.813 12.688V20H240.813ZM257.831 20L254.743 15.904L256.375 14.896L260.183 20H257.831ZM251.703 20V11.456H253.703V20H251.703ZM253.111 16.576V14.912H256.007V16.576H253.111ZM256.567 15.968L254.695 15.744L257.831 11.456H259.975L256.567 15.968ZM266.622 20V18.272L266.51 17.904V14.88C266.51 14.2933 266.334 13.84 265.982 13.52C265.63 13.1893 265.096 13.024 264.382 13.024C263.902 13.024 263.427 13.0987 262.958 13.248C262.499 13.3973 262.11 13.6053 261.79 13.872L261.006 12.416C261.464 12.064 262.008 11.8027 262.638 11.632C263.278 11.4507 263.939 11.36 264.622 11.36C265.859 11.36 266.814 11.6587 267.486 12.256C268.168 12.8427 268.51 13.7547 268.51 14.992V20H266.622ZM263.934 20.112C263.294 20.112 262.734 20.0053 262.254 19.792C261.774 19.568 261.4 19.264 261.134 18.88C260.878 18.4853 260.75 18.0427 260.75 17.552C260.75 17.072 260.862 16.64 261.086 16.256C261.32 15.872 261.699 15.568 262.222 15.344C262.744 15.12 263.438 15.008 264.302 15.008H266.782V16.336H264.446C263.763 16.336 263.304 16.448 263.07 16.672C262.835 16.8853 262.718 17.152 262.718 17.472C262.718 17.8347 262.862 18.1227 263.15 18.336C263.438 18.5493 263.838 18.656 264.35 18.656C264.84 18.656 265.278 18.544 265.662 18.32C266.056 18.096 266.339 17.7653 266.51 17.328L266.846 18.528C266.654 19.0293 266.307 19.4187 265.806 19.696C265.315 19.9733 264.691 20.112 263.934 20.112ZM112.536 40L110.04 35.904L111.672 34.896L114.92 40H112.536ZM108.424 36.576V34.912H111.288V36.576H108.424ZM111.864 35.968L109.976 35.744L112.568 31.456H114.696L111.864 35.968ZM103.512 40H101.144L104.376 34.896L106.008 35.904L103.512 40ZM109.016 40H107.032V31.456H109.016V40ZM107.624 36.576H104.776V34.912H107.624V36.576ZM104.184 35.968L101.352 31.456H103.48L106.056 35.744L104.184 35.968ZM120.109 40.112C119.16 40.112 118.328 39.9253 117.613 39.552C116.909 39.168 116.36 38.6453 115.965 37.984C115.581 37.3227 115.389 36.5707 115.389 35.728C115.389 34.8747 115.576 34.1227 115.949 33.472C116.333 32.8107 116.856 32.2933 117.517 31.92C118.189 31.5467 118.952 31.36 119.805 31.36C120.637 31.36 121.379 31.5413 122.029 31.904C122.68 32.2667 123.192 32.7787 123.565 33.44C123.939 34.1013 124.125 34.88 124.125 35.776C124.125 35.8613 124.12 35.9573 124.109 36.064C124.109 36.1707 124.104 36.272 124.093 36.368H116.973V35.04H123.037L122.253 35.456C122.264 34.9653 122.163 34.5333 121.949 34.16C121.736 33.7867 121.443 33.4933 121.069 33.28C120.707 33.0667 120.285 32.96 119.805 32.96C119.315 32.96 118.883 33.0667 118.509 33.28C118.147 33.4933 117.859 33.792 117.645 34.176C117.443 34.5493 117.341 34.992 117.341 35.504V35.824C117.341 36.336 117.459 36.7893 117.693 37.184C117.928 37.5787 118.259 37.8827 118.685 38.096C119.112 38.3093 119.603 38.416 120.157 38.416C120.637 38.416 121.069 38.3413 121.453 38.192C121.837 38.0427 122.179 37.808 122.477 37.488L123.549 38.72C123.165 39.168 122.68 39.5147 122.093 39.76C121.517 39.9947 120.856 40.112 120.109 40.112ZM124.955 39.984L125.051 38.304C125.126 38.3147 125.195 38.3253 125.259 38.336C125.323 38.3467 125.382 38.352 125.435 38.352C125.766 38.352 126.022 38.2507 126.203 38.048C126.385 37.8453 126.518 37.5733 126.603 37.232C126.699 36.88 126.763 36.4907 126.795 36.064C126.838 35.6267 126.87 35.1893 126.891 34.752L127.035 31.456H133.947V40H131.947V32.608L132.411 33.152H128.347L128.779 32.592L128.667 34.848C128.635 35.6053 128.571 36.3093 128.475 36.96C128.39 37.6 128.251 38.16 128.059 38.64C127.878 39.12 127.622 39.4933 127.291 39.76C126.971 40.0267 126.561 40.16 126.059 40.16C125.899 40.16 125.723 40.144 125.531 40.112C125.35 40.08 125.158 40.0373 124.955 39.984ZM140.625 40.112C139.676 40.112 138.844 39.9253 138.129 39.552C137.425 39.168 136.876 38.6453 136.481 37.984C136.097 37.3227 135.905 36.5707 135.905 35.728C135.905 34.8747 136.092 34.1227 136.465 33.472C136.849 32.8107 137.372 32.2933 138.033 31.92C138.705 31.5467 139.468 31.36 140.321 31.36C141.153 31.36 141.894 31.5413 142.545 31.904C143.196 32.2667 143.708 32.7787 144.081 33.44C144.454 34.1013 144.641 34.88 144.641 35.776C144.641 35.8613 144.636 35.9573 144.625 36.064C144.625 36.1707 144.62 36.272 144.609 36.368H137.489V35.04H143.553L142.769 35.456C142.78 34.9653 142.678 34.5333 142.465 34.16C142.252 33.7867 141.958 33.4933 141.585 33.28C141.222 33.0667 140.801 32.96 140.321 32.96C139.83 32.96 139.398 33.0667 139.025 33.28C138.662 33.4933 138.374 33.792 138.161 34.176C137.958 34.5493 137.857 34.992 137.857 35.504V35.824C137.857 36.336 137.974 36.7893 138.209 37.184C138.444 37.5787 138.774 37.8827 139.201 38.096C139.628 38.3093 140.118 38.416 140.673 38.416C141.153 38.416 141.585 38.3413 141.969 38.192C142.353 38.0427 142.694 37.808 142.993 37.488L144.065 38.72C143.681 39.168 143.196 39.5147 142.609 39.76C142.033 39.9947 141.372 40.112 140.625 40.112ZM149.392 40.144C148.741 40.144 148.096 40.0693 147.456 39.92C146.826 39.76 146.256 39.536 145.744 39.248L146.304 37.76C146.72 37.9947 147.189 38.176 147.712 38.304C148.234 38.432 148.757 38.496 149.28 38.496C149.728 38.496 150.112 38.4533 150.432 38.368C150.752 38.272 150.997 38.1333 151.168 37.952C151.349 37.7707 151.44 37.5627 151.44 37.328C151.44 36.9867 151.29 36.7307 150.992 36.56C150.704 36.3787 150.288 36.288 149.744 36.288H148.096V34.944H149.584C149.925 34.944 150.213 34.9067 150.448 34.832C150.693 34.7573 150.88 34.6453 151.008 34.496C151.136 34.3467 151.2 34.1707 151.2 33.968C151.2 33.7653 151.12 33.5893 150.96 33.44C150.81 33.28 150.592 33.1627 150.304 33.088C150.016 33.0027 149.669 32.96 149.264 32.96C148.837 32.96 148.394 33.0133 147.936 33.12C147.488 33.2267 147.029 33.3813 146.56 33.584L146.048 32.112C146.592 31.8667 147.12 31.68 147.632 31.552C148.154 31.4133 148.672 31.3387 149.184 31.328C149.962 31.296 150.656 31.376 151.264 31.568C151.872 31.76 152.352 32.0373 152.704 32.4C153.056 32.7627 153.232 33.1893 153.232 33.68C153.232 34.0853 153.104 34.4533 152.848 34.784C152.602 35.104 152.261 35.3547 151.824 35.536C151.397 35.7173 150.906 35.808 150.352 35.808L150.416 35.376C151.365 35.376 152.112 35.568 152.656 35.952C153.2 36.3253 153.472 36.8373 153.472 37.488C153.472 38.0107 153.296 38.4747 152.944 38.88C152.592 39.2747 152.106 39.584 151.488 39.808C150.88 40.032 150.181 40.144 149.392 40.144ZM159.34 40.112C158.465 40.112 157.686 39.9253 157.004 39.552C156.321 39.168 155.782 38.6453 155.388 37.984C154.993 37.3227 154.796 36.5707 154.796 35.728C154.796 34.8747 154.993 34.1227 155.388 33.472C155.782 32.8107 156.321 32.2933 157.004 31.92C157.686 31.5467 158.465 31.36 159.34 31.36C160.225 31.36 161.009 31.5467 161.692 31.92C162.385 32.2933 162.924 32.8053 163.308 33.456C163.702 34.1067 163.9 34.864 163.9 35.728C163.9 36.5707 163.702 37.3227 163.308 37.984C162.924 38.6453 162.385 39.168 161.692 39.552C161.009 39.9253 160.225 40.112 159.34 40.112ZM159.34 38.4C159.83 38.4 160.268 38.2933 160.652 38.08C161.036 37.8667 161.334 37.5573 161.548 37.152C161.772 36.7467 161.884 36.272 161.884 35.728C161.884 35.1733 161.772 34.6987 161.548 34.304C161.334 33.8987 161.036 33.5893 160.652 33.376C160.268 33.1627 159.836 33.056 159.356 33.056C158.865 33.056 158.428 33.1627 158.044 33.376C157.67 33.5893 157.372 33.8987 157.148 34.304C156.924 34.6987 156.812 35.1733 156.812 35.728C156.812 36.272 156.924 36.7467 157.148 37.152C157.372 37.5573 157.67 37.8667 158.044 38.08C158.428 38.2933 158.86 38.4 159.34 38.4ZM169.955 40.16C169.251 40.16 168.622 40.0533 168.067 39.84C167.513 39.6267 167.033 39.3013 166.627 38.864C166.233 38.416 165.929 37.8507 165.715 37.168C165.502 36.4853 165.395 35.6747 165.395 34.736C165.395 34.0533 165.454 33.4293 165.571 32.864C165.689 32.2987 165.865 31.792 166.099 31.344C166.334 30.8853 166.627 30.48 166.979 30.128C167.342 29.776 167.763 29.4827 168.243 29.248C168.723 29.0133 169.267 28.832 169.875 28.704L173.843 27.856L174.131 29.648L170.531 30.384C170.329 30.4267 170.083 30.4907 169.795 30.576C169.518 30.6507 169.23 30.768 168.931 30.928C168.643 31.0773 168.371 31.296 168.115 31.584C167.87 31.8613 167.667 32.224 167.507 32.672C167.358 33.1093 167.283 33.6587 167.283 34.32C167.283 34.5227 167.289 34.6773 167.299 34.784C167.321 34.88 167.337 34.9867 167.347 35.104C167.369 35.2107 167.379 35.3707 167.379 35.584L166.627 34.8C166.841 34.256 167.134 33.792 167.507 33.408C167.891 33.0133 168.334 32.7147 168.835 32.512C169.347 32.2987 169.902 32.192 170.499 32.192C171.299 32.192 172.009 32.3573 172.627 32.688C173.246 33.0187 173.731 33.4827 174.083 34.08C174.435 34.6773 174.611 35.3547 174.611 36.112C174.611 36.9013 174.419 37.6 174.035 38.208C173.651 38.816 173.107 39.296 172.403 39.648C171.71 39.9893 170.894 40.16 169.955 40.16ZM170.115 38.544C170.595 38.544 171.017 38.4427 171.379 38.24C171.753 38.0267 172.041 37.7387 172.243 37.376C172.457 37.0133 172.563 36.608 172.563 36.16C172.563 35.712 172.457 35.3227 172.243 34.992C172.041 34.6507 171.753 34.3787 171.379 34.176C171.017 33.9733 170.585 33.872 170.083 33.872C169.603 33.872 169.171 33.968 168.787 34.16C168.414 34.352 168.121 34.6187 167.907 34.96C167.705 35.2907 167.603 35.6747 167.603 36.112C167.603 36.56 167.71 36.9707 167.923 37.344C168.137 37.7173 168.43 38.0107 168.803 38.224C169.187 38.4373 169.625 38.544 170.115 38.544ZM180.531 40.112C179.582 40.112 178.75 39.9253 178.035 39.552C177.331 39.168 176.782 38.6453 176.387 37.984C176.003 37.3227 175.811 36.5707 175.811 35.728C175.811 34.8747 175.998 34.1227 176.371 33.472C176.755 32.8107 177.278 32.2933 177.939 31.92C178.611 31.5467 179.374 31.36 180.227 31.36C181.059 31.36 181.8 31.5413 182.451 31.904C183.102 32.2667 183.614 32.7787 183.987 33.44C184.36 34.1013 184.547 34.88 184.547 35.776C184.547 35.8613 184.542 35.9573 184.531 36.064C184.531 36.1707 184.526 36.272 184.515 36.368H177.395V35.04H183.459L182.675 35.456C182.686 34.9653 182.584 34.5333 182.371 34.16C182.158 33.7867 181.864 33.4933 181.491 33.28C181.128 33.0667 180.707 32.96 180.227 32.96C179.736 32.96 179.304 33.0667 178.931 33.28C178.568 33.4933 178.28 33.792 178.067 34.176C177.864 34.5493 177.763 34.992 177.763 35.504V35.824C177.763 36.336 177.88 36.7893 178.115 37.184C178.35 37.5787 178.68 37.8827 179.107 38.096C179.534 38.3093 180.024 38.416 180.579 38.416C181.059 38.416 181.491 38.3413 181.875 38.192C182.259 38.0427 182.6 37.808 182.899 37.488L183.971 38.72C183.587 39.168 183.102 39.5147 182.515 39.76C181.939 39.9947 181.278 40.112 180.531 40.112ZM188.183 40V32.672L188.647 33.152H185.175V31.456H193.175V33.152H189.719L190.183 32.672V40H188.183ZM198.058 40.112C197.184 40.112 196.405 39.9253 195.722 39.552C195.04 39.168 194.501 38.6453 194.106 37.984C193.712 37.3227 193.514 36.5707 193.514 35.728C193.514 34.8747 193.712 34.1227 194.106 33.472C194.501 32.8107 195.04 32.2933 195.722 31.92C196.405 31.5467 197.184 31.36 198.058 31.36C198.944 31.36 199.728 31.5467 200.41 31.92C201.104 32.2933 201.642 32.8053 202.026 33.456C202.421 34.1067 202.618 34.864 202.618 35.728C202.618 36.5707 202.421 37.3227 202.026 37.984C201.642 38.6453 201.104 39.168 200.41 39.552C199.728 39.9253 198.944 40.112 198.058 40.112ZM198.058 38.4C198.549 38.4 198.986 38.2933 199.37 38.08C199.754 37.8667 200.053 37.5573 200.266 37.152C200.49 36.7467 200.602 36.272 200.602 35.728C200.602 35.1733 200.49 34.6987 200.266 34.304C200.053 33.8987 199.754 33.5893 199.37 33.376C198.986 33.1627 198.554 33.056 198.074 33.056C197.584 33.056 197.146 33.1627 196.762 33.376C196.389 33.5893 196.09 33.8987 195.866 34.304C195.642 34.6987 195.53 35.1733 195.53 35.728C195.53 36.272 195.642 36.7467 195.866 37.152C196.09 37.5573 196.389 37.8667 196.762 38.08C197.146 38.2933 197.578 38.4 198.058 38.4ZM204.594 40V31.456H206.594V34.928H210.898V31.456H212.898V40H210.898V36.624H206.594V40H204.594ZM215.578 40V31.456H217.578V34.928H221.882V31.456H223.882V40H221.882V36.624H217.578V40H215.578ZM235.187 40V31.456H237.187V40H235.187ZM230.723 34.272C231.821 34.272 232.653 34.5173 233.219 35.008C233.795 35.4987 234.083 36.192 234.083 37.088C234.083 38.016 233.763 38.7413 233.123 39.264C232.493 39.776 231.597 40.0267 230.435 40.016L226.563 40V31.456H228.563V34.256L230.723 34.272ZM230.259 38.544C230.845 38.5547 231.293 38.432 231.603 38.176C231.912 37.92 232.067 37.5467 232.067 37.056C232.067 36.5653 231.912 36.2133 231.603 36C231.304 35.776 230.856 35.6587 230.259 35.648L228.563 35.632V38.528L230.259 38.544ZM238.611 40L242.371 35.104L242.339 36.176L238.755 31.456H240.979L243.491 34.816H242.643L245.171 31.456H247.331L243.715 36.176L243.731 35.104L247.475 40H245.219L242.579 36.432L243.411 36.544L240.819 40H238.611ZM102.344 60V51.456H104.344V57.088L109.064 51.456H110.888V60H108.888V54.368L104.184 60H102.344ZM116.173 60.144C115.522 60.144 114.877 60.0693 114.237 59.92C113.608 59.76 113.037 59.536 112.525 59.248L113.085 57.76C113.501 57.9947 113.97 58.176 114.493 58.304C115.016 58.432 115.538 58.496 116.061 58.496C116.509 58.496 116.893 58.4533 117.213 58.368C117.533 58.272 117.778 58.1333 117.949 57.952C118.13 57.7707 118.221 57.5627 118.221 57.328C118.221 56.9867 118.072 56.7307 117.773 56.56C117.485 56.3787 117.069 56.288 116.525 56.288H114.877V54.944H116.365C116.706 54.944 116.994 54.9067 117.229 54.832C117.474 54.7573 117.661 54.6453 117.789 54.496C117.917 54.3467 117.981 54.1707 117.981 53.968C117.981 53.7653 117.901 53.5893 117.741 53.44C117.592 53.28 117.373 53.1627 117.085 53.088C116.797 53.0027 116.45 52.96 116.045 52.96C115.618 52.96 115.176 53.0133 114.717 53.12C114.269 53.2267 113.81 53.3813 113.341 53.584L112.829 52.112C113.373 51.8667 113.901 51.68 114.413 51.552C114.936 51.4133 115.453 51.3387 115.965 51.328C116.744 51.296 117.437 51.376 118.045 51.568C118.653 51.76 119.133 52.0373 119.485 52.4C119.837 52.7627 120.013 53.1893 120.013 53.68C120.013 54.0853 119.885 54.4533 119.629 54.784C119.384 55.104 119.042 55.3547 118.605 55.536C118.178 55.7173 117.688 55.808 117.133 55.808L117.197 55.376C118.146 55.376 118.893 55.568 119.437 55.952C119.981 56.3253 120.253 56.8373 120.253 57.488C120.253 58.0107 120.077 58.4747 119.725 58.88C119.373 59.2747 118.888 59.584 118.269 59.808C117.661 60.032 116.962 60.144 116.173 60.144ZM128.169 59.072V53.152H124.889L124.841 54.528C124.819 55.0187 124.787 55.4933 124.745 55.952C124.702 56.4 124.633 56.816 124.537 57.2C124.441 57.5733 124.302 57.8827 124.121 58.128C123.939 58.3733 123.699 58.5333 123.401 58.608L121.417 58.304C121.737 58.304 121.993 58.2027 122.185 58C122.387 57.7867 122.542 57.4987 122.649 57.136C122.766 56.7627 122.851 56.3413 122.905 55.872C122.958 55.392 122.995 54.896 123.017 54.384L123.129 51.456H130.169V59.072H128.169ZM121.113 61.904V58.304H131.433V61.904H129.561V60H122.969V61.904H121.113ZM137.203 60.112C136.254 60.112 135.422 59.9253 134.707 59.552C134.003 59.168 133.454 58.6453 133.059 57.984C132.675 57.3227 132.483 56.5707 132.483 55.728C132.483 54.8747 132.67 54.1227 133.043 53.472C133.427 52.8107 133.95 52.2933 134.611 51.92C135.283 51.5467 136.046 51.36 136.899 51.36C137.731 51.36 138.472 51.5413 139.123 51.904C139.774 52.2667 140.286 52.7787 140.659 53.44C141.032 54.1013 141.219 54.88 141.219 55.776C141.219 55.8613 141.214 55.9573 141.203 56.064C141.203 56.1707 141.198 56.272 141.187 56.368H134.067V55.04H140.131L139.347 55.456C139.358 54.9653 139.256 54.5333 139.043 54.16C138.83 53.7867 138.536 53.4933 138.163 53.28C137.8 53.0667 137.379 52.96 136.899 52.96C136.408 52.96 135.976 53.0667 135.603 53.28C135.24 53.4933 134.952 53.792 134.739 54.176C134.536 54.5493 134.435 54.992 134.435 55.504V55.824C134.435 56.336 134.552 56.7893 134.787 57.184C135.022 57.5787 135.352 57.8827 135.779 58.096C136.206 58.3093 136.696 58.416 137.251 58.416C137.731 58.416 138.163 58.3413 138.547 58.192C138.931 58.0427 139.272 57.808 139.571 57.488L140.643 58.72C140.259 59.168 139.774 59.5147 139.187 59.76C138.611 59.9947 137.95 60.112 137.203 60.112ZM142.049 59.984L142.145 58.304C142.22 58.3147 142.289 58.3253 142.353 58.336C142.417 58.3467 142.476 58.352 142.529 58.352C142.86 58.352 143.116 58.2507 143.297 58.048C143.478 57.8453 143.612 57.5733 143.697 57.232C143.793 56.88 143.857 56.4907 143.889 56.064C143.932 55.6267 143.964 55.1893 143.985 54.752L144.129 51.456H151.041V60H149.041V52.608L149.505 53.152H145.441L145.873 52.592L145.761 54.848C145.729 55.6053 145.665 56.3093 145.569 56.96C145.484 57.6 145.345 58.16 145.153 58.64C144.972 59.12 144.716 59.4933 144.385 59.76C144.065 60.0267 143.654 60.16 143.153 60.16C142.993 60.16 142.817 60.144 142.625 60.112C142.444 60.08 142.252 60.0373 142.049 59.984ZM153.735 60V51.456H155.735V57.088L160.455 51.456H162.279V60H160.279V54.368L155.575 60H153.735ZM164.969 60V51.456H166.969V57.088L171.689 51.456H173.513V60H171.513V54.368L166.809 60H164.969ZM169.113 50.448C168.26 50.448 167.604 50.2507 167.145 49.856C166.686 49.4507 166.452 48.864 166.441 48.096H167.769C167.78 48.48 167.897 48.784 168.121 49.008C168.356 49.232 168.681 49.344 169.097 49.344C169.502 49.344 169.822 49.232 170.057 49.008C170.302 48.784 170.43 48.48 170.441 48.096H171.801C171.79 48.864 171.55 49.4507 171.081 49.856C170.622 50.2507 169.966 50.448 169.113 50.448Z" fill="white"/>
<line x1="85" y1="62.004" x2="85" y2="-0.00403595" stroke="#FCEE0A" stroke-width="3"/>
<path d="M14.176 60L10.912 54.544L12.672 53.504L16.576 60H14.176ZM8.832 55.28V53.488H12.208V55.28H8.832ZM12.784 54.64L10.848 54.384L14.128 48.8H16.336L12.784 54.64ZM2.656 60H0.256L4.16 53.504L5.936 54.544L2.656 60ZM9.44 60H7.408V48.8H9.44V60ZM8.016 55.28H4.624V53.488H8.016V55.28ZM4.064 54.64L0.496 48.8H2.704L5.968 54.384L4.064 54.64ZM18.0371 60V48.8H26.7571V50.512H20.0851V53.264H23.3971C24.7411 53.264 25.7598 53.5467 26.4531 54.112C27.1571 54.6667 27.5091 55.4773 27.5091 56.544C27.5091 57.6427 27.1198 58.496 26.3411 59.104C25.5731 59.7013 24.4851 60 23.0771 60H18.0371ZM20.0851 58.4H22.9651C23.7651 58.4 24.3731 58.2453 24.7891 57.936C25.2051 57.6267 25.4131 57.1787 25.4131 56.592C25.4131 55.44 24.5971 54.864 22.9651 54.864H20.0851V58.4ZM29.8028 60V48.8H31.8508V56.752L37.8668 48.8H39.8028V60H37.7548V52.064L31.7388 60H29.8028ZM46.6769 56.384V54.72H51.0769V56.384H46.6769ZM56.935 60V58.608L61.383 54.384C61.7563 54.032 62.0337 53.7227 62.215 53.456C62.3963 53.1893 62.5137 52.944 62.567 52.72C62.631 52.4853 62.663 52.2667 62.663 52.064C62.663 51.552 62.487 51.1573 62.135 50.88C61.783 50.592 61.2657 50.448 60.583 50.448C60.039 50.448 59.543 50.544 59.095 50.736C58.6577 50.928 58.279 51.2213 57.959 51.616L56.503 50.496C56.9403 49.9093 57.527 49.456 58.263 49.136C59.0097 48.8053 59.8417 48.64 60.759 48.64C61.5697 48.64 62.2737 48.7733 62.871 49.04C63.479 49.296 63.943 49.664 64.263 50.144C64.5937 50.624 64.759 51.1947 64.759 51.856C64.759 52.2187 64.711 52.5813 64.615 52.944C64.519 53.296 64.3377 53.6693 64.071 54.064C63.8043 54.4587 63.415 54.9013 62.903 55.392L59.079 59.024L58.647 58.24H65.191V60H56.935ZM68.1835 60V49.6L69.0955 50.544H65.8155V48.8H70.2635V60H68.1835Z" fill="white"/>
<path d="M44.8117 4.89573C43.8188 5.62861 41.7265 7.1771 40.1662 8.34734C37.1992 10.5578 30.6507 15.4279 29.9414 15.9598C29.7168 16.1253 29.5041 16.2435 29.4922 16.2316C29.4686 16.208 29.3859 16.2789 29.3149 16.3735C29.2322 16.4681 28.062 17.3782 26.6908 18.3948C25.3314 19.3996 23.972 20.4161 23.6765 20.6407C21.8798 22.0119 19.6575 23.6313 19.6575 23.5722C19.6575 23.5249 19.5866 23.5722 19.5157 23.6786C19.4329 23.785 18.3573 24.6242 17.1161 25.5462C15.8868 26.4564 14.7402 27.3193 14.5747 27.4375C14.4092 27.5557 11.8087 29.5061 8.78263 31.7639C5.75656 34.0098 3.20332 35.9365 3.10876 36.0311C2.95509 36.1729 2.95509 36.1847 3.16786 36.1138C3.29789 36.0665 3.67615 35.842 4.01894 35.6292C4.36174 35.4164 4.66907 35.2391 4.70454 35.2391C4.74 35.2391 4.96459 35.1091 5.21282 34.9672C5.44923 34.8136 5.91023 34.5417 6.24121 34.3526C6.97408 33.9507 9.61007 32.414 10.7685 31.7284C11.2531 31.4447 11.7023 31.1965 11.7732 31.1847C11.856 31.1728 11.9387 31.1256 11.9742 31.0783C12.0215 31.0192 12.9316 30.4872 14.6338 29.5061C14.8939 29.3643 15.5558 28.9742 16.1114 28.6551C19.7639 26.5274 20.8278 25.9363 20.8869 25.9954C20.9223 26.0309 20.9578 26.0072 20.9578 25.9481C20.9578 25.8772 21.1824 25.6999 21.4661 25.5462C21.738 25.3926 22.5772 24.9198 23.3219 24.4824C25.2368 23.3594 25.5678 23.1821 25.5678 23.2531C25.5678 23.2885 25.6387 23.2412 25.7333 23.1467C25.8279 23.0521 27.3527 22.1419 29.1376 21.1135C30.9107 20.0852 33.1093 18.8085 34.0195 18.2766C34.9297 17.7447 36.5846 16.7872 37.6839 16.1489C38.795 15.5106 40.4026 14.565 41.2773 14.0567C42.1402 13.5484 42.9204 13.1347 43.0031 13.1347C43.0859 13.1347 43.1804 13.0874 43.2041 13.0401C43.2632 12.8746 46.3011 11.1252 46.5138 11.1252C46.6084 11.1252 47.5895 11.6216 48.6888 12.2363C50.4737 13.2174 55.2019 15.7943 57.2469 16.8936C57.6724 17.1182 58.1807 17.3901 58.3699 17.5083C58.5708 17.6265 59.2564 17.9929 59.9065 18.3357C60.5567 18.6785 61.1477 18.9977 61.2068 19.0449C61.2777 19.0922 61.8569 19.4114 62.5071 19.7542C63.1572 20.097 64.091 20.6053 64.5756 20.8771C65.0603 21.149 65.8404 21.5745 66.2896 21.8228C66.7506 22.071 67.7436 22.6148 68.5119 23.0285C69.2802 23.454 69.9304 23.7732 69.9658 23.7377C70.0013 23.7141 69.6112 23.324 69.1029 22.8748C68.5946 22.4256 68.1573 22.0355 68.1218 22.0001C68.0864 21.9646 67.8736 21.7873 67.649 21.5982C67.4244 21.4091 66.8925 20.9481 66.4669 20.5816C66.0414 20.2034 64.8239 19.1395 63.7482 18.2175C62.6725 17.2955 61.6323 16.3971 61.4432 16.2198C61.2423 16.0543 60.7103 15.5933 60.2611 15.2033C59.8001 14.8132 59.4101 14.4586 59.3746 14.4231C59.3391 14.3876 58.7245 13.8439 57.9916 13.2292C57.2705 12.6027 56.7032 12.059 56.7504 12.0235C56.7859 11.9881 56.7504 11.9526 56.6677 11.9526C56.585 11.9526 55.592 11.137 54.4454 10.1441C53.2988 9.16296 51.5021 7.60264 50.4619 6.70428C49.4099 5.80592 48.2396 4.78935 47.8614 4.45837C47.0221 3.73732 46.8094 3.57183 46.703 3.56001C46.6675 3.56001 45.8164 4.16286 44.8117 4.89573Z" fill="#FFF000"/>
<path d="M48.7711 13.3355C48.6293 13.3592 48.3456 13.572 48.1328 13.8084C47.7664 14.2339 47.7664 14.2575 47.8137 15.1914C47.861 15.9597 47.9437 16.2907 48.2274 16.8581C48.6057 17.6028 49.0785 18.2529 49.0903 18.0283C49.0903 17.9692 48.9603 17.6264 48.7948 17.2954C48.6293 16.9526 48.4993 16.6453 48.4993 16.5862C48.4993 16.4916 48.6884 16.3734 50.0596 15.6287L50.9816 15.1323L51.2889 15.4514L51.6081 15.7588L51.5372 15.3923C51.4308 14.8722 50.9579 14.1748 50.426 13.7611C49.9768 13.4065 49.2913 13.2292 48.7711 13.3355Z" fill="#FFF000"/>
<path d="M44.9542 19.3641C44.2096 19.7305 42.1291 20.7471 40.3442 21.6218C38.5593 22.4965 35.8761 23.8086 34.3748 24.5415C32.8855 25.2743 30.0131 26.681 27.9917 27.6739C25.9823 28.6668 23.1099 30.0735 21.6086 30.8063C18.4998 32.3312 10.1072 36.4566 7.68404 37.6623C6.79749 38.0996 6.08826 38.4897 6.1119 38.5252C6.14736 38.5488 6.46652 38.4424 6.83296 38.2651C7.19939 38.0996 7.50673 37.9578 7.54219 37.9578C7.56583 37.9578 8.05047 37.745 8.60604 37.485C9.16161 37.2249 9.64625 37.0121 9.66989 37.0121C9.69353 37.0121 10.1309 36.823 10.6392 36.5866C11.1475 36.3502 11.8922 36.0074 12.3059 35.8183C12.7196 35.6291 13.0742 35.4755 13.0979 35.4755C13.1333 35.4755 13.4525 35.3336 13.8307 35.1681C14.209 34.9908 14.6818 34.7899 14.8709 34.7071C15.2019 34.5653 16.1476 34.1397 16.9986 33.7615C17.9443 33.3359 19.0436 32.8395 19.3509 32.6858C19.5401 32.6031 19.7292 32.5558 19.7883 32.5913C19.8474 32.6267 19.8947 32.6031 19.8947 32.544C19.8947 32.4849 20.072 32.3667 20.2847 32.2721C20.4857 32.1894 21.1004 31.9175 21.6441 31.6693C22.1879 31.421 22.6489 31.2201 22.6725 31.2201C22.708 31.2201 23.0035 31.09 23.3463 30.9364C23.6891 30.7827 24.5283 30.4045 25.2139 30.0971C25.8995 29.7898 26.6678 29.447 26.9279 29.3288C27.188 29.2106 27.9563 28.8678 28.6419 28.5604C29.3275 28.2531 30.0958 27.9103 30.3559 27.7921C30.6159 27.6739 32.5899 26.7992 34.7295 25.8417C38.9612 23.9622 39.2686 23.8204 40.557 23.2294C41.0416 23.0048 41.4435 22.8275 41.4672 22.8275C41.4908 22.8275 41.8927 22.6502 42.3774 22.4256C43.6894 21.8227 44.1268 21.6454 44.1268 21.74C44.1268 21.7873 44.1741 21.7636 44.2214 21.6927C44.3041 21.5509 46.3727 20.5816 46.5618 20.5816C46.68 20.5816 50.6636 22.2601 51.6329 22.7093C51.7629 22.7802 53.3705 23.454 55.2027 24.2223C57.0467 24.9906 58.5242 25.6526 58.4888 25.6762C58.4651 25.7117 58.5361 25.7353 58.6543 25.7472C58.7843 25.759 59.1153 25.8654 59.399 25.9954C59.6708 26.1254 61.2666 26.7992 62.9215 27.4966C65.8175 28.7141 66.7277 29.1042 67.236 29.3288C67.7443 29.5652 69.7065 30.3926 69.742 30.3926C70.0611 30.3926 68.1344 29.3997 59.4581 25.0852C48.2876 19.5295 46.5618 18.6903 46.4082 18.6903C46.3609 18.6903 45.6989 18.9976 44.9542 19.3641Z" fill="#FFF000"/>
<path d="M58.1339 18.9976C57.5902 19.5886 57.602 20.877 58.1576 21.9054C58.5004 22.5319 58.6422 22.5792 58.4413 21.9882C58.3703 21.7754 58.3467 21.5626 58.394 21.5153C58.5831 21.338 60.2143 20.8298 60.3798 20.9007C60.6162 20.9834 60.6044 20.9361 60.2971 20.3333C59.9188 19.6241 59.0086 18.6902 58.6777 18.6902C58.5358 18.6902 58.2876 18.8321 58.1339 18.9976Z" fill="#FFF000"/>
<path d="M49.126 23.2766C48.7123 23.3357 48.1922 23.9385 48.0503 24.4941C47.8139 25.4161 48.2867 26.9764 49.0787 27.9103L49.4333 28.324L49.0314 27.3192C48.8068 26.7637 48.6177 26.2554 48.6177 26.1963C48.6177 26.0544 50.6981 25.2033 51.2773 25.1088C51.5019 25.0733 51.691 25.1088 51.7383 25.1797C51.7856 25.2506 51.8802 25.3097 51.9393 25.3097C52.0811 25.3097 51.6792 24.6951 51.1709 24.1513C50.6035 23.5248 49.7643 23.1702 49.126 23.2766Z" fill="#FFF000"/>
<path d="M66.3724 23.6193C66.1951 23.6548 66.0296 23.8202 65.9233 24.0921C65.7105 24.5768 65.8642 25.5342 66.2542 26.2435C66.7271 27.0945 66.8334 26.9882 66.5261 25.9716C66.3252 25.3096 66.4197 25.0732 66.928 25.0732C67.7554 25.0614 67.9919 24.8013 67.6963 24.234C67.5545 23.9503 66.8453 23.4774 66.6798 23.5484C66.6561 23.5602 66.5143 23.5957 66.3724 23.6193Z" fill="#FFF000"/>
<path d="M58.358 27.2956C57.9679 27.6029 57.8379 27.9457 57.8379 28.6549C57.8379 29.376 58.0625 30.1089 58.4407 30.6408C58.7599 31.1018 58.8308 31.019 58.6062 30.4753C58.5117 30.2389 58.4289 29.8724 58.4289 29.6479V29.2578L59.3509 29.045C59.8474 28.9268 60.3202 28.785 60.403 28.7259C60.5803 28.5722 60.2966 28.0166 59.7765 27.4847C59.3155 27.0237 58.7717 26.9528 58.358 27.2956Z" fill="#FFF000"/>
<path d="M45.589 29.9493C45.2339 30.0542 43.2927 30.6415 41.2687 31.2604C39.2565 31.8792 36.83 32.6028 35.8831 32.886C34.9362 33.1692 33.1607 33.7146 31.9179 34.0922C29.5033 34.8368 25.9168 35.9276 23.9875 36.5045C23.3365 36.7037 21.7977 37.1757 20.5549 37.5533C19.3239 37.9309 17.7734 38.4028 17.1224 38.6021C16.4714 38.7909 14.6959 39.3363 13.169 39.7978C11.6421 40.2697 10.3756 40.6473 10.3519 40.6473C10.3401 40.6473 10.3164 40.6893 10.3164 40.7522C10.3164 40.92 10.6597 40.878 11.6184 40.6053C12.1037 40.469 12.8257 40.2802 13.2163 40.1753C13.6069 40.0809 14.0567 39.9551 14.2224 39.9131C14.3881 39.8607 15.0747 39.6824 15.7612 39.4936C16.4477 39.3153 17.3828 39.0741 17.8325 38.9482C18.2942 38.8223 18.8268 38.6965 19.0162 38.644C19.3476 38.5706 20.9574 38.1511 23.2181 37.5428C23.7744 37.3855 24.3899 37.2281 24.5793 37.1757C24.7805 37.1337 25.112 37.0394 25.3368 36.9764C25.5499 36.924 25.7748 36.903 25.834 36.9345C25.8932 36.9659 25.9405 36.945 25.9405 36.903C25.9405 36.8506 26.1891 36.7457 26.5087 36.6723C26.8164 36.5884 27.278 36.473 27.5384 36.3996C27.7988 36.3262 28.3315 36.1898 28.7221 36.0849C29.6453 35.8437 32.0718 35.2039 33.6934 34.7634C33.8946 34.711 34.6048 34.5222 35.2913 34.3439C35.9778 34.1656 36.6643 33.9873 36.83 33.9348C36.9957 33.8929 37.4455 33.767 37.8361 33.6726C38.2267 33.5782 38.6765 33.4524 38.8422 33.4104C39.0079 33.358 39.6234 33.1902 40.2034 33.0433C40.7952 32.886 41.967 32.5819 42.8074 32.3511C43.6596 32.1204 44.5119 31.9001 44.7013 31.8477C44.9025 31.7952 45.4351 31.6484 45.9086 31.5226C46.7134 31.3128 46.7963 31.3128 47.5065 31.4596C47.9208 31.5435 48.9505 31.7638 49.7909 31.9421C50.6431 32.1204 51.519 32.3092 51.7439 32.3616C52.2884 32.4875 53.4247 32.7182 57.5438 33.5573C58.2895 33.7146 59.2246 33.9034 59.6152 33.9873C60.6449 34.2075 62.669 34.6166 63.6987 34.8263C64.184 34.9207 64.7403 35.0466 64.9297 35.099C65.1191 35.1515 65.4032 35.1934 65.5571 35.1934C65.7109 35.1934 65.8175 35.2249 65.7938 35.2668C65.7583 35.3193 65.8885 35.3612 66.0779 35.3717C66.4093 35.3927 66.7999 35.4661 68.9541 35.9381C69.7708 36.1059 70.1259 36.1269 69.9602 35.9905C69.9129 35.9591 68.3978 35.5291 66.8946 35.141C65.9121 34.8788 62.4677 33.9558 61.4498 33.6726C60.8935 33.5153 60.207 33.3265 59.9111 33.2531C59.6152 33.1797 58.9287 32.9909 58.3723 32.8336C57.816 32.6763 57.2124 32.5084 57.0111 32.4665C56.372 32.3092 55.4961 32.0679 54.4663 31.7848C52.9039 31.3547 48.8914 30.2745 48.0155 30.0542C47.8261 30.0018 47.471 29.9179 47.2461 29.8549C46.6898 29.6976 46.3584 29.7186 45.589 29.9493Z" fill="#FFF000"/>
<path d="M66.4434 30.948C65.9705 31.5272 65.876 32.2601 66.1715 33.123C66.3724 33.7022 66.9398 34.4587 66.9398 34.1396C66.9398 34.0332 66.8925 33.9268 66.8334 33.8795C66.7625 33.8441 66.6798 33.5722 66.6325 33.2885C66.5379 32.6384 66.7034 32.402 67.2472 32.402C67.6018 32.402 68.0037 32.1537 68.0037 31.941C68.0037 31.8109 67.4363 31.0662 67.2117 30.8889C66.9398 30.688 66.6561 30.7116 66.4434 30.948Z" fill="#FFF000"/>
<path d="M49.2085 33.7378C48.4638 34.1278 48.1328 34.7543 48.1328 35.7709C48.1328 36.3856 48.1919 36.6574 48.452 37.1303C48.9839 38.1114 49.3503 38.265 49.0312 37.3667C48.7593 36.5865 48.7829 36.4919 49.4213 36.3146C49.7286 36.2201 50.4024 36.0191 50.9106 35.8536C51.809 35.5818 51.8563 35.5699 52.01 35.7827C52.1518 35.9837 52.1636 35.9718 52.1636 35.7354C52.1636 35.1562 51.5135 34.2579 50.7452 33.785C50.1896 33.4541 49.7759 33.4422 49.2085 33.7378Z" fill="#FFF000"/>
<path d="M58.7121 35.7709C57.9555 36.3619 57.7191 37.6858 58.1683 38.7024C58.4047 39.2462 58.6293 39.4708 58.4875 39.0334C58.3929 38.7379 58.6057 37.8277 58.8066 37.7095C58.8894 37.6504 59.244 37.6031 59.5868 37.6031C60.4851 37.6031 60.6625 37.4849 60.5561 36.9293C60.4497 36.3028 60.2487 35.9719 59.8114 35.7118C59.3149 35.4045 59.1612 35.4163 58.7121 35.7709Z" fill="#FFF000"/>
<path d="M66.5017 38.0287C66.2062 38.1587 65.8516 38.9034 65.8516 39.4235C65.8516 39.849 66.1589 40.7947 66.2889 40.7947C66.3126 40.7947 66.3244 40.5228 66.3244 40.1918C66.3362 39.3999 66.5844 39.1043 67.1755 39.1989C67.932 39.3171 68.062 38.9625 67.5183 38.2651C67.2937 37.9696 66.88 37.875 66.5017 38.0287Z" fill="#FFF000"/>
<path d="M32.1039 42.2959C32.2103 42.3195 32.3994 42.3195 32.5176 42.2959C32.624 42.2604 32.5295 42.2368 32.3049 42.2368C32.0803 42.2368 31.9857 42.2604 32.1039 42.2959Z" fill="#FFF000"/>
</svg>
