<?xml version="1.0" encoding="utf-8"?><svg viewBox="0 0 339 59" xmlns="http://www.w3.org/2000/svg" xmlns:xlink="http://www.w3.org/1999/xlink"><style>:root>svg{display:none}:root>svg:target{display:block}</style><svg viewBox="0 0 339 59" id="btn" xmlns="http://www.w3.org/2000/svg"><mask id="aa"><path fill-rule="evenodd" clip-rule="evenodd" d="M316.66 0H0v59h339V21.702L316.66 0z"/></mask><path d="M0 0v-3h-3v3h3zm316.66 0l2.09-2.152-.873-.848h-1.217v3zM0 59h-3v3h3v-3zm339 0v3h3v-3h-3zm0-37.298h3v-1.268l-.91-.883-2.09 2.151zM0 3h316.66v-6H0v6zm3 56V0h-6v59h6zm336-3H0v6h339v-6zm-3-34.298V59h6V21.702h-6zm5.09-2.151L318.75-2.152l-4.181 4.304 22.341 21.702 4.18-4.303z" mask="url(#aa)"/><defs><linearGradient id="aa" x1="-194.508" y1="-57.265" x2="655.444" y2="121.866" gradientUnits="userSpaceOnUse"><stop stop-color="#FFF000"/><stop offset=".563" stop-color="#FFF43A" stop-opacity=".453"/><stop offset="1" stop-color="#FFF000" stop-opacity="0"/></linearGradient></defs></svg><svg viewBox="0 0 28 29" id="telegram" xmlns="http://www.w3.org/2000/svg"><path d="M27.452 3.028a1.718 1.718 0 00-1.671-.352L1.16 10.63A1.65 1.65 0 000 12.125a1.643 1.643 0 001.012 1.595L7.1 16.33l1.837 8.35c.077.347.256.656.637.751.385.096.657-.11.944-.32l4.518-3.316 5.283 4.236a1.702 1.702 0 001.613.287 1.66 1.66 0 001.102-1.19l4.92-20.5a1.637 1.637 0 00-.503-1.6zm-16.54 14.799a.213.213 0 00-.008.024l-1.019 3.487-1.136-5.166 7.815-4.256-5.464 5.6a.802.802 0 00-.187.31zm.324 4.744l.462-1.584.443-1.515 1.585 1.271-2.49 1.828zM26.354 4.26l-4.92 20.5c-.002.01-.005.024-.03.032-.023.008-.035 0-.043-.007l-5.78-4.636L12.902 18l8.603-8.816a.794.794 0 00.057-1.049.833.833 0 00-1.05-.212L7.772 14.86l-6.101-2.616c-.019-.008-.029-.013-.027-.044.001-.03.012-.034.03-.04l24.62-7.953c.012-.004.026-.009.046.01.02.017.016.03.013.042z"/></svg><svg viewBox="0 0 256 256" id="whatsapp" xmlns="http://www.w3.org/2000/svg"><path d="M128 3.174C59.129 3.174 3.174 59.13 3.174 128c0 22.143 6.073 42.799 16.195 60.833l-15.994 57.1a5.427 5.427 0 006.53 6.73l59.536-14.751c17.508 9.334 37.36 14.914 58.559 14.914 68.871 0 124.826-55.955 124.826-124.826S196.87 3.174 128 3.174zm0 10.855c63.01 0 113.971 50.961 113.971 113.971S191.01 241.971 128 241.971c-20.2 0-39.12-5.264-55.564-14.469a5.427 5.427 0 00-3.956-.532l-52.14 12.923 13.981-49.882a5.427 5.427 0 00-.542-4.233A113.32 113.32 0 0114.029 128C14.029 64.99 64.99 14.029 128 14.029zM82.645 62.874c-3.479 0-8.45 1.291-12.532 5.693-2.453 2.643-12.667 12.59-12.667 30.094 0 18.24 12.651 33.985 14.182 36.009h.01v.005a171.88 171.88 0 0016.304 19.994c9.79 10.307 23.554 22.214 40.628 29.503 7.87 3.348 14.073 5.372 18.778 6.843 8.71 2.736 16.645 2.323 22.604 1.444 4.467-.657 9.373-2.8 14.23-5.872 4.852-3.072 9.612-6.893 11.712-12.7a44.774 44.774 0 002.546-11.175 25.616 25.616 0 00.054-4.27c-.109-1.293 0-2.28-1.2-4.261-2.529-4.147-5.389-4.255-8.374-5.731a896.946 896.946 0 00-11.125-5.39c-4.728-2.252-8.825-4.249-11.349-5.15-1.595-.575-3.538-1.4-6.35-1.08-2.805.32-5.584 2.345-7.196 4.738-1.53 2.269-7.696 9.541-9.574 11.68-.021-.012.142.059-.602-.305-2.323-1.15-5.167-2.127-9.373-4.347a77.522 77.522 0 01-15.218-10.567v-.01c-8.57-7.544-14.572-17.015-16.466-20.195.13-.152-.01.033.255-.233l.011-.011c1.938-1.905 3.653-4.18 5.102-5.85 2.051-2.367 2.958-4.451 3.94-6.405 1.954-3.886.868-8.157-.266-10.41v-.01c.081.157-.608-1.368-1.357-3.126l-2.713-6.486c-2.03-4.873-4.299-10.344-5.645-13.546v-.01c-1.59-3.773-3.745-6.492-6.556-7.805-2.811-1.308-5.291-.939-5.394-.939h-.011c-2.008-.098-4.206-.12-6.388-.12zm0 10.854c2.09 0 4.152.027 5.883.109 1.775.086 1.666.092 1.324-.066-.347-.162.125-.217 1.134 2.182 1.32 3.137 3.599 8.63 5.64 13.514 1.02 2.442 1.97 4.743 2.735 6.54.76 1.801 1.172 2.806 1.65 3.766v.011l.01.01c.473.923.435.332.272.652-1.15 2.28-1.303 2.833-2.464 4.168-1.764 2.035-3.566 4.299-4.516 5.237-.835.82-2.333 2.095-3.278 4.592-.939 2.496-.499 5.932 1.01 8.488 2.008 3.414 8.629 14.181 18.908 23.24a88.735 88.735 0 0017.335 12.026c4.819 2.545 8.743 4.032 9.622 4.467 2.09 1.03 4.369 1.834 7.017 1.514 2.654-.32 4.94-1.927 6.394-3.571l.01-.011c1.938-2.198 7.69-8.765 10.453-12.814.114.038.076.006.993.337v.01h.011c.418.147 5.666 2.497 10.345 4.728a854.167 854.167 0 0110.973 5.313c2.226 1.102 3.278 1.818 3.55 1.823.021.473.038.994-.033 1.78a34.544 34.544 0 01-1.937 8.423c-.57 1.585-3.55 4.847-7.305 7.219-3.756 2.377-8.326 4.06-10.019 4.303-5.085.755-11.126 1.026-17.763-1.058a181.382 181.382 0 01-17.763-6.475c-15.066-6.425-27.869-17.356-37.014-26.989a161.275 161.275 0 01-10.849-12.689c-2.605-3.38-3.734-5.145-4.684-6.393l-.01-.005C78.596 125.883 68.3 111.556 68.3 98.66c0-13.655 6.344-19.012 9.769-22.708 1.807-1.943 3.777-2.225 4.575-2.225z" font-family="none" font-weight="none" font-size="none" text-anchor="none"/></svg></svg>